<?xml version="1.0" encoding="UTF-8"?>
<svg width="111px" height="42px" viewBox="0 0 111 42" version="1.1" xmlns="http://www.w3.org/2000/svg" xmlns:xlink="http://www.w3.org/1999/xlink">
    <title>Facebook_btn</title>
    <g id="Móvil" stroke="none" stroke-width="1" fill="none" fill-rule="evenodd">
        <g id="Home-Login" transform="translate(-78.000000, -575.000000)">
            <g id="Facebook_btn" transform="translate(78.000000, 575.000000)">
                <path d="M34.272,26 L34.272,22.172 L37.692,22.172 L37.692,21.188 L34.272,21.188 L34.272,18.68 L38.124,18.68 L38.124,17.684 L33.108,17.684 L33.108,26 L34.272,26 Z M39.276,26 L40.032,23.876 L43.8,23.876 C43.928,24.236 44.052,24.59 44.172,24.938 C44.292,25.286 44.42,25.64 44.556,26 L44.556,26 L45.828,26 C45.508,25.12 45.208,24.306 44.928,23.558 C44.648,22.81 44.374,22.1 44.106,21.428 C43.838,20.756 43.572,20.114 43.308,19.502 C43.044,18.89 42.768,18.284 42.48,17.684 L42.48,17.684 L41.412,17.684 C41.124,18.284 40.848,18.89 40.584,19.502 C40.32,20.114 40.054,20.756 39.786,21.428 C39.518,22.1 39.244,22.81 38.964,23.558 C38.684,24.306 38.384,25.12 38.064,26 L38.064,26 L39.276,26 Z M43.464,22.916 L40.368,22.916 C40.616,22.22 40.866,21.546 41.118,20.894 C41.37,20.242 41.636,19.616 41.916,19.016 C42.188,19.616 42.45,20.242 42.702,20.894 C42.954,21.546 43.208,22.22 43.464,22.916 L43.464,22.916 Z M50.304,26.18 C50.64,26.18 50.952,26.16 51.24,26.12 C51.528,26.08 51.78,26.032 51.996,25.976 C52.212,25.92 52.392,25.862 52.536,25.802 C52.68,25.742 52.78,25.692 52.836,25.652 L52.836,25.652 L52.536,24.692 C52.36,24.78 52.096,24.88 51.744,24.992 C51.392,25.104 50.948,25.16 50.412,25.16 C49.948,25.16 49.542,25.08 49.194,24.92 C48.846,24.76 48.556,24.534 48.324,24.242 C48.092,23.95 47.918,23.6 47.802,23.192 C47.686,22.784 47.628,22.332 47.628,21.836 C47.628,21.324 47.694,20.862 47.826,20.45 C47.958,20.038 48.148,19.688 48.396,19.4 C48.644,19.112 48.944,18.892 49.296,18.74 C49.648,18.588 50.044,18.512 50.484,18.512 C50.692,18.512 50.898,18.53 51.102,18.566 C51.306,18.602 51.494,18.648 51.666,18.704 C51.838,18.76 51.992,18.816 52.128,18.872 C52.264,18.928 52.368,18.98 52.44,19.028 L52.44,19.028 L52.776,18.068 C52.728,18.036 52.64,17.988 52.512,17.924 C52.384,17.86 52.218,17.796 52.014,17.732 C51.81,17.668 51.57,17.612 51.294,17.564 C51.018,17.516 50.708,17.492 50.364,17.492 C49.82,17.492 49.308,17.588 48.828,17.78 C48.348,17.972 47.928,18.252 47.568,18.62 C47.208,18.988 46.922,19.442 46.71,19.982 C46.498,20.522 46.392,21.14 46.392,21.836 C46.392,22.532 46.486,23.15 46.674,23.69 C46.862,24.23 47.128,24.684 47.472,25.052 C47.816,25.42 48.228,25.7 48.708,25.892 C49.188,26.084 49.72,26.18 50.304,26.18 Z M59.544,26 L59.544,25.004 L55.332,25.004 L55.332,22.124 L58.812,22.124 L58.812,21.152 L55.332,21.152 L55.332,18.68 L59.244,18.68 L59.244,17.684 L54.168,17.684 L54.168,26 L59.544,26 Z M63.264,26.072 C64.592,26.072 65.562,25.862 66.174,25.442 C66.786,25.022 67.092,24.396 67.092,23.564 C67.092,22.996 66.948,22.556 66.66,22.244 C66.372,21.932 65.984,21.704 65.496,21.56 C65.856,21.416 66.144,21.198 66.36,20.906 C66.576,20.614 66.684,20.24 66.684,19.784 C66.684,19.376 66.596,19.032 66.42,18.752 C66.244,18.472 66.002,18.246 65.694,18.074 C65.386,17.902 65.022,17.78 64.602,17.708 C64.182,17.636 63.732,17.6 63.252,17.6 C63.084,17.6 62.904,17.604 62.712,17.612 C62.52,17.62 62.326,17.632 62.13,17.648 C61.934,17.664 61.74,17.684 61.548,17.708 C61.356,17.732 61.18,17.764 61.02,17.804 L61.02,17.804 L61.02,25.868 C61.18,25.908 61.356,25.94 61.548,25.964 C61.74,25.988 61.934,26.008 62.13,26.024 C62.326,26.04 62.522,26.052 62.718,26.06 C62.914,26.068 63.096,26.072 63.264,26.072 Z M63.396,21.188 L62.172,21.188 L62.172,18.62 C62.308,18.604 62.46,18.592 62.628,18.584 C62.796,18.576 63.028,18.572 63.324,18.572 C63.62,18.572 63.9,18.596 64.164,18.644 C64.428,18.692 64.658,18.766 64.854,18.866 C65.05,18.966 65.204,19.098 65.316,19.262 C65.428,19.426 65.484,19.628 65.484,19.868 C65.484,20.124 65.43,20.336 65.322,20.504 C65.214,20.672 65.066,20.808 64.878,20.912 C64.69,21.016 64.468,21.088 64.212,21.128 C63.956,21.168 63.684,21.188 63.396,21.188 L63.396,21.188 Z M63.336,25.1 C63.152,25.1 62.99,25.098 62.85,25.094 C62.71,25.09 62.588,25.084 62.484,25.076 C62.364,25.068 62.26,25.06 62.172,25.052 L62.172,25.052 L62.172,22.124 L63.672,22.124 C64.008,22.124 64.312,22.148 64.584,22.196 C64.856,22.244 65.09,22.324 65.286,22.436 C65.482,22.548 65.632,22.698 65.736,22.886 C65.84,23.074 65.892,23.304 65.892,23.576 C65.892,23.88 65.822,24.132 65.682,24.332 C65.542,24.532 65.356,24.688 65.124,24.8 C64.892,24.912 64.622,24.99 64.314,25.034 C64.006,25.078 63.68,25.1 63.336,25.1 Z M72.396,26.18 C72.932,26.18 73.438,26.088 73.914,25.904 C74.39,25.72 74.808,25.446 75.168,25.082 C75.528,24.718 75.814,24.264 76.026,23.72 C76.238,23.176 76.344,22.548 76.344,21.836 C76.344,21.124 76.238,20.496 76.026,19.952 C75.814,19.408 75.528,18.954 75.168,18.59 C74.808,18.226 74.39,17.952 73.914,17.768 C73.438,17.584 72.932,17.492 72.396,17.492 C71.852,17.492 71.338,17.584 70.854,17.768 C70.37,17.952 69.946,18.226 69.582,18.59 C69.218,18.954 68.93,19.408 68.718,19.952 C68.506,20.496 68.4,21.124 68.4,21.836 C68.4,22.548 68.506,23.176 68.718,23.72 C68.93,24.264 69.218,24.718 69.582,25.082 C69.946,25.446 70.37,25.72 70.854,25.904 C71.338,26.088 71.852,26.18 72.396,26.18 Z M72.372,25.16 C71.948,25.16 71.566,25.082 71.226,24.926 C70.886,24.77 70.598,24.548 70.362,24.26 C70.126,23.972 69.944,23.622 69.816,23.21 C69.688,22.798 69.624,22.34 69.624,21.836 C69.624,21.332 69.688,20.874 69.816,20.462 C69.944,20.05 70.126,19.7 70.362,19.412 C70.598,19.124 70.886,18.902 71.226,18.746 C71.566,18.59 71.948,18.512 72.372,18.512 C72.796,18.512 73.176,18.59 73.512,18.746 C73.848,18.902 74.134,19.124 74.37,19.412 C74.606,19.7 74.788,20.05 74.916,20.462 C75.044,20.874 75.108,21.332 75.108,21.836 C75.108,22.34 75.044,22.798 74.916,23.21 C74.788,23.622 74.606,23.972 74.37,24.26 C74.134,24.548 73.848,24.77 73.512,24.926 C73.176,25.082 72.796,25.16 72.372,25.16 Z M81.732,26.18 C82.268,26.18 82.774,26.088 83.25,25.904 C83.726,25.72 84.144,25.446 84.504,25.082 C84.864,24.718 85.15,24.264 85.362,23.72 C85.574,23.176 85.68,22.548 85.68,21.836 C85.68,21.124 85.574,20.496 85.362,19.952 C85.15,19.408 84.864,18.954 84.504,18.59 C84.144,18.226 83.726,17.952 83.25,17.768 C82.774,17.584 82.268,17.492 81.732,17.492 C81.188,17.492 80.674,17.584 80.19,17.768 C79.706,17.952 79.282,18.226 78.918,18.59 C78.554,18.954 78.266,19.408 78.054,19.952 C77.842,20.496 77.736,21.124 77.736,21.836 C77.736,22.548 77.842,23.176 78.054,23.72 C78.266,24.264 78.554,24.718 78.918,25.082 C79.282,25.446 79.706,25.72 80.19,25.904 C80.674,26.088 81.188,26.18 81.732,26.18 Z M81.708,25.16 C81.284,25.16 80.902,25.082 80.562,24.926 C80.222,24.77 79.934,24.548 79.698,24.26 C79.462,23.972 79.28,23.622 79.152,23.21 C79.024,22.798 78.96,22.34 78.96,21.836 C78.96,21.332 79.024,20.874 79.152,20.462 C79.28,20.05 79.462,19.7 79.698,19.412 C79.934,19.124 80.222,18.902 80.562,18.746 C80.902,18.59 81.284,18.512 81.708,18.512 C82.132,18.512 82.512,18.59 82.848,18.746 C83.184,18.902 83.47,19.124 83.706,19.412 C83.942,19.7 84.124,20.05 84.252,20.462 C84.38,20.874 84.444,21.332 84.444,21.836 C84.444,22.34 84.38,22.798 84.252,23.21 C84.124,23.622 83.942,23.972 83.706,24.26 C83.47,24.548 83.184,24.77 82.848,24.926 C82.512,25.082 82.132,25.16 81.708,25.16 Z M88.572,26 L88.572,22.052 C88.908,22.26 89.254,22.512 89.61,22.808 C89.966,23.104 90.318,23.426 90.666,23.774 C91.014,24.122 91.344,24.486 91.656,24.866 C91.968,25.246 92.244,25.624 92.484,26 L92.484,26 L93.852,26 C93.636,25.624 93.366,25.228 93.042,24.812 C92.718,24.396 92.372,23.988 92.004,23.588 C91.636,23.188 91.26,22.812 90.876,22.46 C90.492,22.108 90.128,21.812 89.784,21.572 C90.08,21.284 90.396,20.972 90.732,20.636 C91.068,20.3 91.406,19.958 91.746,19.61 C92.086,19.262 92.412,18.922 92.724,18.59 C93.036,18.258 93.316,17.956 93.564,17.684 L93.564,17.684 L92.16,17.684 C91.96,17.916 91.714,18.186 91.422,18.494 C91.13,18.802 90.82,19.124 90.492,19.46 C90.164,19.796 89.832,20.13 89.496,20.462 C89.16,20.794 88.852,21.092 88.572,21.356 L88.572,21.356 L88.572,17.684 L87.408,17.684 L87.408,26 L88.572,26 Z" id="FACEBOOK" fill="#C4E5FF" fill-rule="nonzero"></path>
                <g id="Group-6" transform="translate(12.000000, 10.000000)" fill="#DBEFFF">
                    <path d="M8.17246573,3.9978992 L11,3.9978992 L11,0 L7.67615605,0 L7.67615605,0.0144172348 C3.64874228,0.150948448 2.82331676,2.31785883 2.75056484,4.59376352 L2.74228046,4.59376352 L2.74228046,6.59011802 L0,6.59011802 L0,10.5052623 L2.74228046,10.5052623 L2.74228046,21 L6.87543305,21 L6.87543305,10.5052623 L10.2608827,10.5052623 L10.9148968,6.59011802 L6.87663805,6.59011802 L6.87663805,5.38397215 C6.87663805,4.61481268 7.41135713,3.9978992 8.17246573,3.9978992" id="Fill-4"></path>
                </g>
                <rect id="Rectangle" stroke="#DBEFFF" x="0.5" y="0.5" width="110" height="41" rx="4"></rect>
            </g>
        </g>
    </g>
</svg>