<?xml version="1.0" encoding="UTF-8"?>
<svg width="18px" height="18px" viewBox="0 0 18 18" version="1.1" xmlns="http://www.w3.org/2000/svg" xmlns:xlink="http://www.w3.org/1999/xlink">
    <title>Group</title>
    <g id="Móvil" stroke="none" stroke-width="1" fill="none" fill-rule="evenodd" opacity="0.778026762">
        <g id="Home-Login" transform="translate(-61.000000, -332.000000)" fill="#C4E5FF">
            <g id="Group" transform="translate(61.000000, 332.000000)">
                <rect id="Rectangle-Copy" opacity="0" x="0" y="0" width="18" height="18"></rect>
                <g id="Group-4" transform="translate(9.500000, 9.000000) scale(-1, 1) translate(-9.500000, -9.000000) translate(2.000000, 0.000000)">
                    <path d="M15,9.58270037 C15,8.70861343 14.2844852,8 13.4018946,8 L1.59808706,8 C0.715487205,8 0,8.70861343 0,9.58270037 L0,16.4173269 C0,17.2914139 0.715487205,18 1.59808706,18 L13.4018946,18 C14.2844852,18 15,17.2914139 15,16.4173269 L15,9.58270037 Z" id="Fill-1"></path>
                    <path d="M4.55546803,8.24395161 L4.55546803,5.65684854 C4.55546803,5.63312752 4.55432682,5.60950101 4.55204441,5.5858745 C4.55204441,5.5858745 4.33561185,3.56826487 5.63126716,2.36198967 C6.17955847,1.8515625 7.00677787,1.51209677 8.22630122,1.51209677 C8.65331525,1.51209677 9,1.17329259 9,0.756048387 C9,0.338804183 8.65331525,0 8.22630122,0 C6.49511152,0 5.34222297,0.54265373 4.56390134,1.2672316 C2.90424977,2.81231099 2.9854011,5.30112777 3.00808014,5.67915197 C3.00807047,5.67896295 3.00807047,8.24395161 3.00807047,8.24395161 C3.00807047,8.66129032 3.35475522,9 3.78176925,9 C4.20878328,9 4.55546803,8.66129032 4.55546803,8.24395161 Z" id="Fill-2"></path>
                    <path d="M12.9919223,8.24395161 L12.9919223,5.67896295 C13.014553,5.30188382 13.095985,2.81259451 11.4361076,1.2672316 C10.6577651,0.54265373 9.50488386,0 7.77370034,0 C7.34667578,0 7,0.338804183 7,0.756048387 C7,1.17329259 7.34667578,1.51209677 7.77370034,1.51209677 C8.99321648,1.51209677 9.82042787,1.8515625 10.3686913,2.36198967 C11.6643492,3.56826487 11.4479065,5.5858745 11.4479065,5.5858745 C11.4456821,5.60950101 11.4445216,5.63312752 11.4445216,5.65684854 L11.4445216,8.24395161 C11.4445216,8.66129032 11.7912361,9 12.2182219,9 C12.6452078,9 12.9919223,8.66129032 12.9919223,8.24395161 Z" id="Fill-3"></path>
                </g>
            </g>
        </g>
    </g>
</svg>