<?xml version="1.0" encoding="UTF-8"?>
<svg width="111px" height="42px" viewBox="0 0 111 42" version="1.1" xmlns="http://www.w3.org/2000/svg" xmlns:xlink="http://www.w3.org/1999/xlink">
    <title>Google_btn</title>
    <g id="Móvil" stroke="none" stroke-width="1" fill="none" fill-rule="evenodd">
        <g id="Home-Login" transform="translate(-225.000000, -575.000000)">
            <g id="Google_btn" transform="translate(225.000000, 575.000000)">
                <path d="M47.668,26.168 C47.956,26.168 48.24,26.154 48.52,26.126 C48.8,26.098 49.058,26.064 49.294,26.024 C49.53,25.984 49.738,25.944 49.918,25.904 C50.098,25.864 50.236,25.828 50.332,25.796 L50.332,25.796 L50.332,21.908 L49.168,21.908 L49.168,25.004 C49.064,25.036 48.894,25.07 48.658,25.106 C48.422,25.142 48.136,25.16 47.8,25.16 C47.328,25.16 46.918,25.08 46.57,24.92 C46.222,24.76 45.93,24.534 45.694,24.242 C45.458,23.95 45.282,23.6 45.166,23.192 C45.05,22.784 44.992,22.332 44.992,21.836 C44.992,21.324 45.06,20.862 45.196,20.45 C45.332,20.038 45.522,19.688 45.766,19.4 C46.01,19.112 46.306,18.892 46.654,18.74 C47.002,18.588 47.388,18.512 47.812,18.512 C48.212,18.512 48.604,18.562 48.988,18.662 C49.372,18.762 49.68,18.888 49.912,19.04 L49.912,19.04 L50.284,18.068 C50.236,18.036 50.146,17.988 50.014,17.924 C49.882,17.86 49.712,17.796 49.504,17.732 C49.296,17.668 49.046,17.612 48.754,17.564 C48.462,17.516 48.128,17.492 47.752,17.492 C47.2,17.492 46.682,17.588 46.198,17.78 C45.714,17.972 45.292,18.252 44.932,18.62 C44.572,18.988 44.286,19.442 44.074,19.982 C43.862,20.522 43.756,21.14 43.756,21.836 C43.756,22.532 43.85,23.148 44.038,23.684 C44.226,24.22 44.492,24.672 44.836,25.04 C45.18,25.408 45.592,25.688 46.072,25.88 C46.552,26.072 47.084,26.168 47.668,26.168 Z M55.816,26.18 C56.352,26.18 56.858,26.088 57.334,25.904 C57.81,25.72 58.228,25.446 58.588,25.082 C58.948,24.718 59.234,24.264 59.446,23.72 C59.658,23.176 59.764,22.548 59.764,21.836 C59.764,21.124 59.658,20.496 59.446,19.952 C59.234,19.408 58.948,18.954 58.588,18.59 C58.228,18.226 57.81,17.952 57.334,17.768 C56.858,17.584 56.352,17.492 55.816,17.492 C55.272,17.492 54.758,17.584 54.274,17.768 C53.79,17.952 53.366,18.226 53.002,18.59 C52.638,18.954 52.35,19.408 52.138,19.952 C51.926,20.496 51.82,21.124 51.82,21.836 C51.82,22.548 51.926,23.176 52.138,23.72 C52.35,24.264 52.638,24.718 53.002,25.082 C53.366,25.446 53.79,25.72 54.274,25.904 C54.758,26.088 55.272,26.18 55.816,26.18 Z M55.792,25.16 C55.368,25.16 54.986,25.082 54.646,24.926 C54.306,24.77 54.018,24.548 53.782,24.26 C53.546,23.972 53.364,23.622 53.236,23.21 C53.108,22.798 53.044,22.34 53.044,21.836 C53.044,21.332 53.108,20.874 53.236,20.462 C53.364,20.05 53.546,19.7 53.782,19.412 C54.018,19.124 54.306,18.902 54.646,18.746 C54.986,18.59 55.368,18.512 55.792,18.512 C56.216,18.512 56.596,18.59 56.932,18.746 C57.268,18.902 57.554,19.124 57.79,19.412 C58.026,19.7 58.208,20.05 58.336,20.462 C58.464,20.874 58.528,21.332 58.528,21.836 C58.528,22.34 58.464,22.798 58.336,23.21 C58.208,23.622 58.026,23.972 57.79,24.26 C57.554,24.548 57.268,24.77 56.932,24.926 C56.596,25.082 56.216,25.16 55.792,25.16 Z M65.152,26.18 C65.688,26.18 66.194,26.088 66.67,25.904 C67.146,25.72 67.564,25.446 67.924,25.082 C68.284,24.718 68.57,24.264 68.782,23.72 C68.994,23.176 69.1,22.548 69.1,21.836 C69.1,21.124 68.994,20.496 68.782,19.952 C68.57,19.408 68.284,18.954 67.924,18.59 C67.564,18.226 67.146,17.952 66.67,17.768 C66.194,17.584 65.688,17.492 65.152,17.492 C64.608,17.492 64.094,17.584 63.61,17.768 C63.126,17.952 62.702,18.226 62.338,18.59 C61.974,18.954 61.686,19.408 61.474,19.952 C61.262,20.496 61.156,21.124 61.156,21.836 C61.156,22.548 61.262,23.176 61.474,23.72 C61.686,24.264 61.974,24.718 62.338,25.082 C62.702,25.446 63.126,25.72 63.61,25.904 C64.094,26.088 64.608,26.18 65.152,26.18 Z M65.128,25.16 C64.704,25.16 64.322,25.082 63.982,24.926 C63.642,24.77 63.354,24.548 63.118,24.26 C62.882,23.972 62.7,23.622 62.572,23.21 C62.444,22.798 62.38,22.34 62.38,21.836 C62.38,21.332 62.444,20.874 62.572,20.462 C62.7,20.05 62.882,19.7 63.118,19.412 C63.354,19.124 63.642,18.902 63.982,18.746 C64.322,18.59 64.704,18.512 65.128,18.512 C65.552,18.512 65.932,18.59 66.268,18.746 C66.604,18.902 66.89,19.124 67.126,19.412 C67.362,19.7 67.544,20.05 67.672,20.462 C67.8,20.874 67.864,21.332 67.864,21.836 C67.864,22.34 67.8,22.798 67.672,23.21 C67.544,23.622 67.362,23.972 67.126,24.26 C66.89,24.548 66.604,24.77 66.268,24.926 C65.932,25.082 65.552,25.16 65.128,25.16 Z M74.404,26.168 C74.692,26.168 74.976,26.154 75.256,26.126 C75.536,26.098 75.794,26.064 76.03,26.024 C76.266,25.984 76.474,25.944 76.654,25.904 C76.834,25.864 76.972,25.828 77.068,25.796 L77.068,25.796 L77.068,21.908 L75.904,21.908 L75.904,25.004 C75.8,25.036 75.63,25.07 75.394,25.106 C75.158,25.142 74.872,25.16 74.536,25.16 C74.064,25.16 73.654,25.08 73.306,24.92 C72.958,24.76 72.666,24.534 72.43,24.242 C72.194,23.95 72.018,23.6 71.902,23.192 C71.786,22.784 71.728,22.332 71.728,21.836 C71.728,21.324 71.796,20.862 71.932,20.45 C72.068,20.038 72.258,19.688 72.502,19.4 C72.746,19.112 73.042,18.892 73.39,18.74 C73.738,18.588 74.124,18.512 74.548,18.512 C74.948,18.512 75.34,18.562 75.724,18.662 C76.108,18.762 76.416,18.888 76.648,19.04 L76.648,19.04 L77.02,18.068 C76.972,18.036 76.882,17.988 76.75,17.924 C76.618,17.86 76.448,17.796 76.24,17.732 C76.032,17.668 75.782,17.612 75.49,17.564 C75.198,17.516 74.864,17.492 74.488,17.492 C73.936,17.492 73.418,17.588 72.934,17.78 C72.45,17.972 72.028,18.252 71.668,18.62 C71.308,18.988 71.022,19.442 70.81,19.982 C70.598,20.522 70.492,21.14 70.492,21.836 C70.492,22.532 70.586,23.148 70.774,23.684 C70.962,24.22 71.228,24.672 71.572,25.04 C71.916,25.408 72.328,25.688 72.808,25.88 C73.288,26.072 73.82,26.168 74.404,26.168 Z M83.896,26 L83.896,24.992 L80.056,24.992 L80.056,17.684 L78.892,17.684 L78.892,26 L83.896,26 Z M90.496,26 L90.496,25.004 L86.284,25.004 L86.284,22.124 L89.764,22.124 L89.764,21.152 L86.284,21.152 L86.284,18.68 L90.196,18.68 L90.196,17.684 L85.12,17.684 L85.12,26 L90.496,26 Z" id="GOOGLE" fill="#C4E5FF" fill-rule="nonzero"></path>
                <g id="google" transform="translate(12.000000, 10.000000)" fill="#DBEFFF" fill-rule="nonzero">
                    <path d="M22,10.7003703 C22,9.97650308 21.9329333,9.2519608 21.8001333,8.54852607 C21.7402222,8.23011272 21.4648444,8 21.1452,8 L10.6666667,8 C10.2981778,8 10,8.30194137 10,8.67508132 L10,12.7255692 C10,13.0987092 10.2981778,13.4006505 10.6666667,13.4006505 L16.0429778,13.4006505 C15.708,14.0873432 15.2463556,14.68317 14.7042667,15.1844404 L18.4722667,19 C20.6403111,16.9083731 22,13.9650185 22,10.7003703 Z" id="Path"></path>
                    <path d="M10.8912117,5.38653367 C12.1293265,5.38653367 13.3070269,5.80605486 14.2967531,6.60034414 C14.5469508,6.80090274 14.9000969,6.77657357 15.1219386,6.53786035 L17.8150875,3.66441397 C17.9402074,3.53091771 18.0073531,3.34746135 17.9993596,3.15875312 C17.9913661,2.97004489 17.9100003,2.79381546 17.7744046,2.67216958 C15.8473311,0.948837905 13.4025287,0 10.8912117,0 C7.19529446,0 3.93018686,2.00441895 2,5.0477207 L5.70428938,9 C6.58803804,6.87608978 8.57640944,5.38653367 10.8912117,5.38653367 Z" id="Path"></path>
                    <path d="M11.2910955,22 C13.8085723,22 16.126763,21.1381546 18,19.7023292 L14.2028362,15.8253267 C13.3349105,16.3242993 12.3429201,16.6134663 11.2910955,16.6134663 C8.87218462,16.6134663 6.79438587,15.1239102 5.87089045,13 L2,16.9522793 C4.01699735,19.995581 7.42895375,22 11.2910955,22 Z" id="Path"></path>
                    <path d="M5,11.9334563 C4.95298075,11.6276112 4.9106266,11.3196058 4.9106266,11.0000216 C4.9106266,10.6804374 4.95298075,10.372432 5,10.0665869 L1.14826819,6 C0.419531199,7.50265492 0,9.19908233 0,11.0000216 C0,12.8009609 0.419531199,14.4973883 1.14830911,16 L5,11.9334563 Z" id="Path"></path>
                </g>
                <rect id="Rectangle-Copy-2" stroke="#DBEFFF" x="0.5" y="0.5" width="110" height="41" rx="4"></rect>
            </g>
        </g>
    </g>
</svg>