<?xml version="1.0" encoding="UTF-8"?>
<svg width="213px" height="64px" viewBox="0 0 213 64" version="1.1" xmlns="http://www.w3.org/2000/svg" xmlns:xlink="http://www.w3.org/1999/xlink">
    <title>Group 14</title>
    <defs>
        <polygon id="path-1" points="0 0 114.077258 0 114.077258 64 0 64"></polygon>
        <polygon id="path-3" points="0 0 35.7179841 0 35.7179841 32.7348052 0 32.7348052"></polygon>
    </defs>
    <g id="Móvil" stroke="none" stroke-width="1" fill="none" fill-rule="evenodd">
        <g id="Home" transform="translate(-101.000000, -269.000000)">
            <g id="Group-14" transform="translate(101.000000, 269.000000)">
                <polygon id="Fill-1" fill="#FFFFFF" points="0 59 11 59 11 9 0 9"></polygon>
                <polygon id="Fill-2" fill="#FFFFFF" points="18 59 29 59 29 28 18 28"></polygon>
                <g id="Group-13" transform="translate(18.000000, 0.000000)">
                    <path d="M6.0896742,22.7644188 C9.43513124,22.7644188 12.1812332,20.0129124 12.1812332,16.6608714 C12.1812332,13.3088304 9.43513124,10.557324 6.0896742,10.557324 C2.74610192,10.557324 0,13.3088304 0,16.6608714 C0,20.0129124 2.74610192,22.7644188 6.0896742,22.7644188" id="Fill-3" fill="#FFFFFF"></path>
                    <g id="Group-7" transform="translate(18.690833, 0.000000)">
                        <mask id="mask-2" fill="white">
                            <use xlink:href="#path-1"></use>
                        </mask>
                        <g id="Clip-6"></g>
                        <path d="M96.5753345,50.7111874 C92.1574465,50.7111874 89.5866276,47.7217334 89.5866276,43.8314773 C89.5866276,40.0583066 92.1574465,36.8894476 96.5753345,36.8894476 C100.996992,36.8894476 103.564041,40.0583066 103.564041,43.8314773 C103.564041,47.7217334 100.996992,50.7111874 96.5753345,50.7111874 L96.5753345,50.7111874 Z M62.2349248,59.1488885 L50.3477149,46.6434148 L50.3477149,59.1488885 L39.4801626,59.1488885 L39.4801626,9.48013857 L50.3477149,9.48013857 L50.3477149,39.5219801 L61.6355697,28.4517465 L76.5101313,28.4517465 L61.160609,42.6341849 L77.465707,59.1488885 L62.2349248,59.1488885 Z M103.207821,31.4412006 C100.93668,28.7501254 97.2350021,27.4319707 93.7086077,27.4319707 C88.039236,27.4319707 83.4630277,30.3742129 80.8300116,34.7252566 C80.8300116,34.727145 80.8281269,34.727145 80.8281269,34.7290335 L80.8281269,1.74683828 C80.8281269,0.783716635 80.0459496,0 79.0847197,0 L33.9823045,0 C33.017305,0 32.2407821,0.783716635 32.2407821,1.74683828 L32.2407821,38.3473493 C31.7300109,31.805676 28.3393195,27.4338592 20.7832985,27.4338592 C16.544463,27.4338592 13.4967988,28.6896942 10.990062,32.4005453 L10.869437,32.4005453 L10.869437,28.4517465 L0,28.4517465 L0,59.1488885 L10.869437,59.1488885 L10.869437,43.2309426 C10.869437,39.4030062 12.1228055,36.1095079 16.544463,36.1095079 C21.9179267,36.1095079 21.4429661,41.255599 21.4429661,44.1902873 L21.4429661,59.1488885 L32.2407821,59.1488885 L32.2407821,62.2554279 C32.2407821,63.2166611 33.017305,64.0003777 33.9823045,64.0003777 L79.0847197,64.0003777 C80.0459496,64.0003777 80.8281269,63.2166611 80.8281269,62.2554279 L80.8281269,52.7715124 C80.8281269,52.7734008 80.8300116,52.7734008 80.8300116,52.7752893 C83.4969534,57.1754333 88.1315894,60.1667758 93.8292326,60.1667758 C97.41217,60.1667758 101.17416,58.7900784 103.087196,55.7420817 L103.207821,55.7420817 L103.207821,59.1488885 L114.077258,59.1488885 L114.077258,28.4498581 L103.207821,28.4498581 L103.207821,31.4412006 Z" id="Fill-5" fill="#FFFFFF" mask="url(#mask-2)"></path>
                    </g>
                    <polygon id="Fill-8" fill="#FFFFFF" points="141.00602 59.1477554 151.877341 59.1477554 151.877341 37.424641 158.029213 37.424641 158.029213 28.4506135 151.877341 28.4506135 151.877341 19.2329728 141.00602 19.2329728 141.00602 28.4506135 137.48151 28.4506135 137.48151 37.424641 141.00602 37.424641"></polygon>
                    <g id="Group-12" transform="translate(159.282016, 27.431971)">
                        <mask id="mask-4" fill="white">
                            <use xlink:href="#path-3"></use>
                        </mask>
                        <g id="Clip-11"></g>
                        <path d="M18.2162492,23.2792168 C13.7983611,23.2792168 11.2313118,20.2897627 11.2313118,16.3995066 C11.2313118,12.6263359 13.7983611,9.45747688 18.2162492,9.45747688 C22.6379068,9.45747688 25.2049561,12.6263359 25.2049561,16.3995066 C25.2049561,20.2897627 22.6379068,23.2792168 18.2162492,23.2792168 L18.2162492,23.2792168 Z M24.8487356,1.01788739 L24.8487356,4.00922992 C22.5775943,1.31815473 18.8759168,0 15.3495223,0 C6.27061159,0 0,7.54067596 0,16.3409639 C0,25.1355865 6.39123652,32.7348052 15.4701473,32.7348052 C19.0530846,32.7348052 22.8150746,31.3581077 24.7281106,28.310111 L24.8487356,28.310111 L24.8487356,31.7169178 L35.7181726,31.7169178 L35.7181726,1.01788739 L24.8487356,1.01788739 Z" id="Fill-10" fill="#FFFFFF" mask="url(#mask-4)"></path>
                    </g>
                </g>
            </g>
        </g>
    </g>
</svg>