<?xml version="1.0" encoding="UTF-8"?>
<svg width="70px" height="21px" viewBox="0 0 70 21" version="1.1" xmlns="http://www.w3.org/2000/svg" xmlns:xlink="http://www.w3.org/1999/xlink">
    <title>Group</title>
    <g id="Symbols" stroke="none" stroke-width="1" fill="none" fill-rule="evenodd">
        <g id="Too_bar" transform="translate(-326.000000, -21.000000)" fill="#2B95D1">
            <g id="Group" transform="translate(326.000000, 21.000000)">
                <path d="M31.8774123,19.4080447 L27.9633342,15.3044693 L27.9633342,19.4080447 L24.3838788,19.4080447 L24.3838788,3.11061453 L27.9633342,3.11061453 L27.9633342,12.9677095 L31.6799961,9.33541899 L36.5782453,9.33541899 L31.5232047,13.9892737 L36.8931712,19.4080447 L31.8774123,19.4080447 Z M37.4264411,0 L22.5737828,0 C22.256171,0 22,0.25698324 22,0.572849162 L22,20.4271508 C22,20.7430168 22.256171,21 22.5737828,21 L37.4264411,21 C37.7425979,21 38,20.7430168 38,20.4271508 L38,0.572849162 C38,0.25698324 37.7425979,0 37.4264411,0 L37.4264411,0 Z" id="Fill-1"></path>
                <polygon id="Fill-67" points="0 19 4 19 4 3 0 3"></polygon>
                <path d="M8,4 C6.90170702,4 6,4.9061808 6,6.00992292 C6,7.11366503 6.90170702,8.01984583 8,8.01984583 C9.09829298,8.01984583 10,7.11366503 10,6.00992292 C10,4.9061808 9.09829298,4 8,4 L8,4 Z M6.21521812,20 L9.78366618,20 L9.78366618,9.89196917 L6.21521812,9.89196917 L6.21521812,20 Z" id="Fill-68"></path>
                <path d="M22.9757039,12.4416303 C22.8013505,10.3792289 21.647633,9 19.0753705,9 C17.6324137,9 16.5948547,9.39628942 15.7410204,10.5661538 L15.7004112,10.5661538 L15.7004112,9.3209182 L12,9.3209182 L12,19 L15.7004112,19 L15.7004112,13.9813719 C15.7004112,12.7738219 16.1272127,11.7356961 17.6324137,11.7356961 C19.4616784,11.7356961 19.2995888,13.3581099 19.2995888,14.2832863 L19.2995888,19 L23,19 L23,13.019691 C23,12.8216 22.992017,12.6284478 22.9757039,12.4416303" id="Fill-69"></path>
                <path d="M44.1201165,16.8222909 C42.6360159,16.8222909 41.7721365,15.8173704 41.7721365,14.5105847 C41.7721365,13.2425907 42.6360159,12.1775947 44.1201165,12.1775947 C45.6053588,12.1775947 46.4678681,13.2425907 46.4678681,14.5105847 C46.4678681,15.8173704 45.6053588,16.8222909 44.1201165,16.8222909 L44.1201165,16.8222909 Z M46.3480942,9.34191555 L46.3480942,10.346836 C45.5853775,9.44227028 44.3413956,9 43.1573579,9 C41.2519363,9 39.7147424,9.9887859 38.8295115,11.4505092 C38.2975509,12.3299004 38,13.380135 38,14.4905596 C38,15.5917153 38.2975509,16.6379448 38.8295115,17.5159629 C39.7254753,18.995194 41.2827647,20 43.1973206,20 C44.4014539,20 45.665417,19.5375901 46.3081315,18.5126445 L46.3480942,18.5126445 L46.3480942,19.6577412 L50,19.6577412 L50,9.34191555 L46.3480942,9.34191555 Z" id="Fill-70"></path>
                <polygon id="Fill-71" points="55.9041452 9.00185125 55.9041452 6 52.2008237 6 52.2008237 9.00185125 51 9.00185125 51 11.9249603 52.2008237 11.9249603 52.2008237 19 55.9041452 19 55.9041452 11.9249603 58 11.9249603 58 9.00185125"></polygon>
                <path d="M64.1200046,16.8222909 C62.6358758,16.8222909 61.7732359,15.8173704 61.7732359,14.5105847 C61.7732359,13.2425907 62.6358758,12.1775947 64.1200046,12.1775947 C65.6053894,12.1775947 66.4680292,13.2425907 66.4680292,14.5105847 C66.4680292,15.8173704 65.6053894,16.8222909 64.1200046,16.8222909 L64.1200046,16.8222909 Z M66.3480247,9.34191555 L66.3480247,10.346836 C65.5854076,9.44227028 64.341288,9 63.1573419,9 C60.1066454,9 58,11.5334706 58,14.4905596 C58,17.4465042 60.1466088,20 63.1974195,20 C64.4013473,20 65.6654487,19.5375901 66.3081754,18.5126445 L66.3480247,18.5126445 L66.3480247,19.6577412 L70,19.6577412 L70,9.34191555 L66.3480247,9.34191555 Z" id="Fill-72"></path>
            </g>
        </g>
    </g>
</svg>