<?xml version="1.0" encoding="UTF-8"?>
<svg width="12px" height="12px" viewBox="0 0 12 12" version="1.1" xmlns="http://www.w3.org/2000/svg" xmlns:xlink="http://www.w3.org/1999/xlink">
    <title>Group 3</title>
    <g id="Symbols" stroke="none" stroke-width="1" fill="none" fill-rule="evenodd">
        <g id="side_menu" transform="translate(-29.000000, -261.000000)" fill="#7CBDD1">
            <g id="Group-3" transform="translate(29.000000, 261.000000)">
                <rect id="Rectangle-Copy-3" opacity="0" x="0" y="0" width="12" height="12"></rect>
                <g id="Fill-6" transform="translate(1.000000, 1.000000)">
                    <path d="M3.4317209,5.64557714 C2.90044461,5.40681321 2.01375512,4.83293818 1.51971305,4.67048882 C1.51969198,4.67048882 1.51966565,4.67043582 1.51963931,4.67043582 C1.03944486,4.51256004 0.512924905,4.68569874 0.218037704,5.09840162 C-0.0768442294,5.5111098 -0.0722195806,6.0684129 0.229478179,6.47610234 C0.23070545,6.47776642 0.231937987,6.4794199 0.233181059,6.48107339 C0.730288665,7.14395559 1.62665411,8.35038308 2.25047077,9.25467904 C2.5536855,9.72995988 3.0818383,10.0129916 3.64470757,9.99954112 C4.21792699,9.9858469 4.74068086,9.66671947 5.01752245,9.16163355 C5.76564103,7.80052065 8.3436457,4.12796636 9.81584312,1.79692696 C10.1365135,1.29648352 10.0292196,0.630479831 9.56549055,0.256379408 C9.10060274,-0.118568955 8.42908056,-0.0779738385 8.01217742,0.350076751 C6.8159841,1.56718828 4.33892108,4.63906205 3.4317209,5.64557714 Z" id="Fill-1"></path>
                </g>
            </g>
        </g>
    </g>
</svg>