<?xml version="1.0" encoding="UTF-8"?>
<svg width="12px" height="12px" viewBox="0 0 12 12" version="1.1" xmlns="http://www.w3.org/2000/svg" xmlns:xlink="http://www.w3.org/1999/xlink">
    <title>Group 2</title>
    <g id="Symbols" stroke="none" stroke-width="1" fill="none" fill-rule="evenodd">
        <g id="side_menu" transform="translate(-29.000000, -227.000000)" fill="#7CBDD1">
            <g id="Group-2" transform="translate(29.000000, 227.000000)">
                <rect id="Rectangle-Copy-2" opacity="0" x="0" y="0" width="12" height="12"></rect>
                <g id="Fill-4" transform="translate(2.000000, 0.000000)">
                    <path d="M3.34601579,12 L3.85398421,12 C4.10488649,12 4.34550583,11.9065591 4.52292162,11.7402382 C4.70033003,11.5739104 4.8,11.3483291 4.8,11.1131144 C4.8,11.1131075 4.8,10.6368856 4.8,10.6368856 C4.8,10.4016709 4.70033003,10.1760827 4.52292162,10.0097618 C4.34550583,9.84343396 4.10488649,9.75 3.85398421,9.75 L3.34601579,9.75 C3.09512089,9.75 2.85449417,9.84343396 2.67708576,10.0097618 C2.49966997,10.1760827 2.4,10.4016709 2.4,10.6368856 C2.4,10.6368856 2.4,11.1131144 2.4,11.1131144 C2.4,11.3483291 2.49966997,11.5739104 2.67708576,11.7402382 C2.85449417,11.9065591 3.09512089,12 3.34601579,12 Z M3.66231865,9 C3.79082133,9 3.9344626,9 4.069519,9 C4.5632548,9 4.9721429,8.63709839 5.00390325,8.17071512 C5.02113874,7.91758859 5.04731711,7.7216906 5.08682942,7.58358134 C5.14032593,7.39663245 5.22162279,7.23065929 5.33272193,7.08654708 C5.46208675,6.91874123 5.74044102,6.66067678 6.16207856,6.30691791 C6.87962003,5.70549602 7.35646374,5.19026619 7.60297729,4.77021902 C7.86709895,4.32032311 8,3.82888376 8,3.29567276 C8,2.37980852 7.6297913,1.5979732 6.88372615,0.952449013 C6.15806011,0.32456021 5.18966517,0 3.97077476,0 C2.81677133,0 1.89226515,0.303190275 1.19019836,0.889653217 C0.623078381,1.36345718 0.232397513,2.00192721 0.0267771564,2.81004272 C-0.0368239239,3.05638482 0.0140788592,3.3166969 0.166641083,3.52514022 C0.319400576,3.73386017 0.559396932,3.87058626 0.82577623,3.90053183 C0.948784591,3.91443266 1.07792291,3.92895592 1.19795032,3.94175021 C1.661124,3.99313488 2.0936844,3.71380424 2.21192177,3.28661302 C2.21212635,3.28592143 2.21232362,3.28516069 2.21252089,3.28439995 C2.33312548,2.83770606 2.51836135,2.49232918 2.78476256,2.25656832 C3.10757549,1.97080595 3.51178757,1.83242006 3.99390641,1.83242006 C4.4961248,1.83242006 4.92118166,1.9889946 5.26725045,2.30663897 C5.60493164,2.61646845 5.77879894,2.97394804 5.77879894,3.38322725 C5.77879894,3.59796398 5.72476177,3.79624101 5.61524078,3.97764341 C5.48483117,4.19369414 5.19594125,4.47828082 4.76045103,4.84203999 C4.2591094,5.2607524 3.91312098,5.58039545 3.72009664,5.7986385 C3.71976055,5.79901887 3.71942446,5.79939924 3.71908837,5.79977962 C3.43633572,6.12204377 3.23335293,6.44271036 3.10622383,6.75952484 C2.93678412,7.17183318 2.84860475,7.6617303 2.84860475,8.22975562 L2.84860475,8.22977636 C2.84861206,8.65515564 3.21291729,9 3.66231865,9 Z" id="Fill-1"></path>
                </g>
            </g>
        </g>
    </g>
</svg>