<?xml version="1.0" encoding="UTF-8"?>
<svg width="12px" height="17px" viewBox="0 0 12 17" version="1.1" xmlns="http://www.w3.org/2000/svg" xmlns:xlink="http://www.w3.org/1999/xlink">
    <title>Fill 1</title>
    <defs>
        <filter color-interpolation-filters="auto" id="filter-1">
            <feColorMatrix in="SourceGraphic" type="matrix" values="0 0 0 0 0.388645 0 0 0 0 0.432199 0 0 0 0 0.466514 0 0 0 1.000000 0"></feColorMatrix>
        </filter>
    </defs>
    <g id="Symbols" stroke="none" stroke-width="1" fill="none" fill-rule="evenodd">
        <g id="Fill-2" transform="translate(-3.000000, 0.000000)" filter="url(#filter-1)">
            <g transform="translate(8.999931, 8.726992) rotate(-360.000000) translate(-8.999931, -8.726992) translate(3.499862, 0.500000)">
                <path d="M5.65240399,13.4539831 C5.99010976,13.4539831 6.31264655,13.5931045 6.54835835,13.8385612 C6.74712695,14.0455474 6.87044237,14.3137496 6.90161885,14.5986773 L6.90945159,14.742329 L6.90945159,15.1656373 C6.90945159,15.5031155 6.78025505,15.8279211 6.54835835,16.0694051 C6.34631966,16.2797965 6.08049119,16.4120641 5.79599741,16.4455611 L5.65240399,16.4539831 L5.24590161,16.4539831 C4.90819583,16.4539831 4.58565904,16.3148618 4.34994724,16.0694051 C4.15117864,15.8624188 4.02786322,15.5942167 3.99668674,15.3092889 L3.988854,15.1656373 L3.988854,14.742329 C3.988854,14.4048508 4.11805054,14.0800451 4.34994724,13.8385612 C4.55198593,13.6281697 4.8178144,13.4959022 5.10230818,13.4624052 L5.24590161,13.4539831 L5.65240399,13.4539831 Z M5.65240399,14.4539831 L5.24590161,14.4539831 C5.18204181,14.4539831 5.11946189,14.480976 5.07122689,14.5312052 C5.03218931,14.5718567 5.00537335,14.6249005 4.99440522,14.6829224 L4.988854,14.742329 L4.988854,15.1656373 C4.988854,15.2463263 5.01917679,15.3225591 5.07122689,15.3767611 C5.10338355,15.4102472 5.14191574,15.4334061 5.18295232,15.4451246 L5.24590161,15.4539831 L5.65240399,15.4539831 C5.71626378,15.4539831 5.7788437,15.4269902 5.82707871,15.3767611 C5.86611628,15.3361096 5.89293224,15.2830658 5.90390037,15.2250439 L5.90945159,15.1656373 L5.90945159,14.742329 C5.90945159,14.66164 5.8791288,14.5854072 5.82707871,14.5312052 C5.79492204,14.4977191 5.75638985,14.4745602 5.71535327,14.4628416 L5.65240399,14.4539831 Z M5.46361327,-1.11022302e-16 C7.09881048,-1.11022302e-16 8.43785781,0.48469202 9.44956721,1.44762327 C10.4790784,2.42764192 11.0001377,3.63282496 11.0001377,5.03213318 C11.0001377,5.84555082 10.8147353,6.60231833 10.4450651,7.29523421 C10.1322256,7.88152878 9.5762155,8.55584822 8.78596114,9.31141806 L8.2258204,9.83727426 L7.96832702,10.0899253 C7.93024647,10.1283886 7.89457234,10.1650368 7.86128797,10.1998812 L7.69012593,10.3873921 C7.64254225,10.4427407 7.60438455,10.4909642 7.57551968,10.5321529 C7.47306832,10.6783588 7.39541558,10.8514715 7.34258758,11.0545905 C7.32346271,11.1281194 7.30643267,11.2238435 7.291634,11.3423768 L7.26505227,11.6100379 C7.26113132,11.6597775 7.25746842,11.7120969 7.25406862,11.7670189 C7.2014051,12.6179111 6.55116808,13.2972131 5.73307023,13.3700649 L5.58704499,13.3765373 L5.07803624,13.3765373 C4.28231926,13.3765373 3.63637973,12.7499238 3.56713195,11.9510744 L3.56098507,11.8084055 L3.56638486,11.5112756 C3.59206037,10.804979 3.70801066,10.173423 3.91319846,9.62416856 C4.06294232,9.21364611 4.28402953,8.8065902 4.58411048,8.39377444 L4.75913774,8.162 C4.8771335,8.01553819 5.03211234,7.8436038 5.22364392,7.64654816 L5.53830204,7.33216767 C5.59529622,7.2766454 5.6545615,7.21956403 5.71609115,7.16092905 L6.11238777,6.79051978 C6.63960674,6.30602857 6.9568852,5.95533933 7.08087055,5.72937201 C7.17632788,5.55543203 7.22364999,5.36580977 7.22364999,5.15259965 C7.22364999,4.72953563 7.06404973,4.36215873 6.72896661,4.02384678 C6.39268419,3.68432537 5.99030511,3.51992938 5.49252658,3.51992938 C5.01227479,3.51992938 4.63445286,3.66485363 4.32990628,3.96139855 C4.10980698,4.17570868 3.93403717,4.49820664 3.80433366,4.93895308 L3.75008578,5.14108103 L3.70739763,5.2849315 C3.45049358,6.0323704 2.72092366,6.51258052 1.93938493,6.41719456 L1.47093613,6.36015361 C0.992194895,6.30089426 0.563121402,6.03206133 0.292141711,5.62463601 C0.0246710026,5.22256114 -0.064150055,4.72292981 0.0464698353,4.25165126 C0.324063073,3.05139089 0.859573217,2.08140451 1.64954006,1.35539105 C2.63053349,0.453764247 3.91160503,-1.11022302e-16 5.46361327,-1.11022302e-16 Z M5.46361327,1 C4.15208238,1 3.11387136,1.3677414 2.32622538,2.0916634 C1.69099648,2.67546605 1.25457759,3.46596531 1.02038225,4.47856962 C0.9723571,4.68317824 1.01081297,4.89949808 1.12476885,5.07080205 C1.23561976,5.2374694 1.40652505,5.34454889 1.59373045,5.36772147 L2.05815592,5.42427576 C2.3509136,5.46000449 2.63095624,5.28536152 2.74690186,5.00028321 L2.78075118,4.8953364 L2.84216498,4.66645594 C3.01759349,4.06610785 3.27535294,3.59247568 3.63227948,3.24493721 C4.12885522,2.76140852 4.75839868,2.51992938 5.49252658,2.51992938 C6.25462528,2.51992938 6.91350372,2.78912073 7.43945498,3.32013784 C7.9553126,3.84096622 8.22364999,4.45864038 8.22364999,5.15259965 C8.22364999,5.53185624 8.13499063,5.8871191 7.95755217,6.21044304 C7.78752457,6.52032386 7.47297072,6.88155141 6.98160199,7.34723808 L6.41503141,7.87621758 L6.09590165,8.18630132 C6.04738654,8.23457767 6.00123411,8.2811188 5.95748348,8.32587506 L5.72411422,8.57259729 C5.69012727,8.61001558 5.65862037,8.64554976 5.62963263,8.67915017 L5.54547438,8.7805737 C5.2219264,9.18617229 4.9936378,9.58033261 4.8513129,9.97047242 C4.71213418,10.3430602 4.62183559,10.7706489 4.58304629,11.2468666 L4.56597485,11.5383817 L4.5609051,11.8173474 C4.5609051,12.0992864 4.75219442,12.326679 4.9952805,12.3693381 L5.07803624,12.3765373 L5.58704499,12.3765373 C5.93581963,12.3765373 6.23235041,12.0870067 6.25597876,11.7052399 C6.28001476,11.3169511 6.31697374,11.0251454 6.37478679,10.8028731 C6.45673745,10.4877801 6.58339318,10.205424 6.75658196,9.9582705 C6.85890706,9.81225768 7.01325965,9.63515713 7.22803477,9.41631837 L7.515305,9.1329959 L7.86380454,8.80551498 C8.70941786,8.02583383 9.2804241,7.35368393 9.56278915,6.82450167 C9.85437337,6.27795137 10.0001385,5.68297688 10.0001385,5.03213318 C10.0001385,3.9077014 9.59210833,2.96395066 8.76011135,2.17195096 C7.94358094,1.39478843 6.85290816,1 5.46361327,1 Z" id="Fill-1" fill="#2B95D1" fill-rule="nonzero"></path>
            </g>
        </g>
    </g>
</svg>