<?xml version="1.0" encoding="UTF-8"?>
<svg width="11px" height="12px" viewBox="0 0 11 12" version="1.1" xmlns="http://www.w3.org/2000/svg" xmlns:xlink="http://www.w3.org/1999/xlink">
    <title>Fill 7</title>
    <g id="Symbols" stroke="none" stroke-width="1" fill="none" fill-rule="evenodd">
        <g id="side_menu" transform="translate(-29.000000, -329.000000)" fill="#7CBDD1">
            <g id="Fill-7" transform="translate(29.000000, 329.000000)">
                <path d="M11,0.565906826 C11.0005519,0.41594699 10.9404408,0.272007439 10.8330004,0.165831497 C10.72556,0.0596555551 10.5795892,0 10.4274127,0 L0.60996857,0 C0.294473427,0 0.0384132234,0.251301306 0.0373480812,0.562075735 C0.0307256748,2.48884071 0.00885784072,8.84975566 0,11.423382 C-0.000719177677,11.6345755 0.118437826,11.8284652 0.308755596,11.9257931 C0.499082628,12.0231119 0.728662469,12.0075504 0.903651452,11.8854663 C2.14236561,11.0212361 4.30252046,9.51413063 5.12370811,8.94120926 C5.3213059,8.80334473 5.58560011,8.80279743 5.78378141,8.93985014 C6.61468501,9.51442253 8.81318499,11.0347179 10.0610038,11.897589 C10.2355945,12.0183139 10.4638128,12.0334559 10.6532229,11.936885 C10.8427256,11.8403233 10.9619289,11.6480482 10.9626699,11.4379676 C10.9714689,8.87555167 10.9934201,2.50088128 11,0.565906826 Z" id="Fill-1" transform="translate(5.500000, 6.000000) scale(-1, 1) translate(-5.500000, -6.000000) "></path>
            </g>
        </g>
    </g>
</svg>