<?xml version="1.0" encoding="UTF-8"?>
<svg width="18px" height="18px" viewBox="0 0 18 18" version="1.1" xmlns="http://www.w3.org/2000/svg" xmlns:xlink="http://www.w3.org/1999/xlink">
    <title>Group</title>
    <g id="Symbols" stroke="none" stroke-width="1" fill="none" fill-rule="evenodd" opacity="0.78">
        <g id="Input_date" transform="translate(0.000000, -13.000000)" fill="#C4E5FF">
            <g id="Group" transform="translate(0.000000, 13.000000)">
                <rect id="Rectangle-Copy" opacity="0" x="0" y="0" width="18" height="18"></rect>
                <g id="Group-8" transform="translate(1.000000, 3.000000)">
                    <path d="M3.77309604,1.40335755 L2.63560832,1.40335755 C1.18097943,1.40335755 0,2.57323205 0,4.01414958 L0,12.389208 C0,13.8301404 1.18097943,15 2.63560832,15 L13.3643917,15 C14.8190808,15 16,13.8301404 16,12.389208 L16,4.01414958 C16,2.57323205 14.8190808,1.40335755 13.3643917,1.40335755 L12.4763512,1.40335755 L12.4763512,0.547749878 C12.4763512,0.24540685 12.2286117,0 11.9234701,0 L10.8176325,0 C10.5124909,0 10.2647514,0.24540685 10.2647514,0.547749878 L10.2647514,1.40335755 L5.98474104,1.40335755 L5.98474104,0.547749878 C5.98474104,0.24540685 5.73698648,0 5.43182979,0 L4.32600729,0 C4.02084307,0 3.77309604,0.24540685 3.77309604,0.547749878 L3.77309604,1.40335755 Z M12.4763512,2.59573823 L12.4763512,4.286385 C12.4763512,4.5886535 12.2286117,4.83406035 11.9234701,4.83406035 L10.8176325,4.83406035 C10.5124909,4.83406035 10.2647514,4.5886535 10.2647514,4.286385 L10.2647514,2.59573823 L5.98474104,2.59573823 L5.98474104,4.286385 C5.98474104,4.5886535 5.73698648,4.83406035 5.43182979,4.83406035 L4.32600729,4.83406035 C4.02084307,4.83406035 3.77309604,4.5886535 3.77309604,4.286385 L3.77309604,2.59573823 L2.63560832,2.59573823 C1.84532456,2.59573823 1.20371459,3.23127714 1.20371459,4.01414958 C1.20371459,4.01414958 1.20371459,12.389208 1.20371459,12.389208 C1.20371459,13.1720506 1.84532456,13.8076193 2.63560832,13.8076193 C2.63560832,13.8076193 13.3643917,13.8076193 13.3643917,13.8076193 C14.1547055,13.8076193 14.7962854,13.1720506 14.7962854,12.389208 L14.7962854,4.01414958 C14.7962854,3.23127714 14.1547055,2.59573823 13.3643917,2.59573823 L12.4763512,2.59573823 Z" id="Fill-1"></path>
                    <path d="M5,7.32484769 C5,7.14552662 4.86624183,7 4.70149157,7 L3.29850843,7 C3.13375817,7 3,7.14552662 3,7.32484769 L3,8.6751757 C3,8.85444999 3.13375817,9 3.29850843,9 L4.70149157,9 C4.86624183,9 5,8.85444999 5,8.6751757 L5,7.32484769 Z" id="Fill-2"></path>
                    <path d="M9,7.32484769 C9,7.14552662 8.86626261,7 8.70152221,7 L7.29851003,7 C7.13375889,7 7,7.14552662 7,7.32484769 L7,8.6751757 C7,8.85444999 7.13375889,9 7.29851003,9 L8.70152221,9 C8.86626261,9 9,8.85444999 9,8.6751757 L9,7.32484769 Z" id="Fill-3"></path>
                    <path d="M9,10.3248234 C9,10.1455496 8.86626261,10 8.70152221,10 L7.29851003,10 C7.13375889,10 7,10.1455496 7,10.3248234 L7,11.6751766 C7,11.8544504 7.13375889,12 7.29851003,12 L8.70152221,12 C8.86626261,12 9,11.8544504 9,11.6751766 L9,10.3248234 Z" id="Fill-4"></path>
                    <path d="M5,10.3248234 C5,10.1455496 4.86624183,10 4.70149157,10 L3.29850843,10 C3.13375817,10 3,10.1455496 3,10.3248234 L3,11.6751766 C3,11.8544504 3.13375817,12 3.29850843,12 L4.70149157,12 C4.86624183,12 5,11.8544504 5,11.6751766 L5,10.3248234 Z" id="Fill-5"></path>
                    <path d="M13,7.32484769 C13,7.14552662 12.8662118,7 12.7014749,7 L11.2985251,7 C11.1337882,7 11,7.14552662 11,7.32484769 L11,8.6751757 C11,8.85444999 11.1337882,9 11.2985251,9 L12.7014749,9 C12.8662118,9 13,8.85444999 13,8.6751757 L13,7.32484769 Z" id="Fill-6"></path>
                    <path d="M13,10.3248234 C13,10.1455496 12.8662118,10 12.7014749,10 L11.2985251,10 C11.1337882,10 11,10.1455496 11,10.3248234 L11,11.6751766 C11,11.8544504 11.1337882,12 11.2985251,12 L12.7014749,12 C12.8662118,12 13,11.8544504 13,11.6751766 L13,10.3248234 Z" id="Fill-7"></path>
                </g>
            </g>
        </g>
    </g>
</svg>