<?xml version="1.0" encoding="UTF-8"?>
<svg width="12px" height="12px" viewBox="0 0 12 12" version="1.1" xmlns="http://www.w3.org/2000/svg" xmlns:xlink="http://www.w3.org/1999/xlink">
    <title>ICONO2</title>
    <g id="Symbols" stroke="none" stroke-width="1" fill="none" fill-rule="evenodd">
        <g id="sub_header" transform="translate(-72.000000, -2.000000)">
            <g id="ICONO2" transform="translate(72.000000, 2.000000)">
                <rect id="Rectangle-Copy-2" fill="#74B8EE" opacity="0" x="0" y="0" width="12" height="12"></rect>
                <g id="Group" opacity="0.78" transform="translate(0.000000, 1.000000)" fill="#213442">
                    <g id="Group-8">
                        <path d="M2.82982203,1.02912887 L1.97670624,1.02912887 C0.885734572,1.02912887 0,1.88703683 0,2.9437097 L0,9.08541917 C0,10.142103 0.885734572,11 1.97670624,11 L10.0232938,11 C11.1143106,11 12,10.142103 12,9.08541917 L12,2.9437097 C12,1.88703683 11.1143106,1.02912887 10.0232938,1.02912887 L9.35726343,1.02912887 L9.35726343,0.401683244 C9.35726343,0.179965023 9.1714588,0 8.94260256,0 L8.1132244,0 C7.88436817,0 7.69856354,0.179965023 7.69856354,0.401683244 L7.69856354,1.02912887 L4.48855578,1.02912887 L4.48855578,0.401683244 C4.48855578,0.179965023 4.30273986,0 4.07387234,0 L3.24450547,0 C3.0156323,0 2.82982203,0.179965023 2.82982203,0.401683244 L2.82982203,1.02912887 Z M9.35726343,1.90354137 L9.35726343,3.143349 C9.35726343,3.36501257 9.1714588,3.54497759 8.94260256,3.54497759 L8.1132244,3.54497759 C7.88436817,3.54497759 7.69856354,3.36501257 7.69856354,3.143349 L7.69856354,1.90354137 L4.48855578,1.90354137 L4.48855578,3.143349 C4.48855578,3.36501257 4.30273986,3.54497759 4.07387234,3.54497759 L3.24450547,3.54497759 C3.0156323,3.54497759 2.82982203,3.36501257 2.82982203,3.143349 L2.82982203,1.90354137 L1.97670624,1.90354137 C1.38399342,1.90354137 0.902785941,2.36960324 0.902785941,2.9437097 C0.902785941,2.9437097 0.902785941,9.08541917 0.902785941,9.08541917 C0.902785941,9.65950377 1.38399342,10.1255875 1.97670624,10.1255875 C1.97670624,10.1255875 10.0232938,10.1255875 10.0232938,10.1255875 C10.6160292,10.1255875 11.0972141,9.65950377 11.0972141,9.08541917 L11.0972141,2.9437097 C11.0972141,2.36960324 10.6160292,1.90354137 10.0232938,1.90354137 L9.35726343,1.90354137 Z" id="Fill-1"></path>
                        <path d="M3.75,5.37155497 C3.75,5.24005285 3.64968137,5.13333333 3.52611868,5.13333333 L2.47388132,5.13333333 C2.35031863,5.13333333 2.25,5.24005285 2.25,5.37155497 L2.25,6.36179551 C2.25,6.49326333 2.35031863,6.6 2.47388132,6.6 L3.52611868,6.6 C3.64968137,6.6 3.75,6.49326333 3.75,6.36179551 L3.75,5.37155497 Z" id="Fill-2"></path>
                        <path d="M6.75,5.37155497 C6.75,5.24005285 6.64969696,5.13333333 6.52614166,5.13333333 L5.47388252,5.13333333 C5.35031916,5.13333333 5.25,5.24005285 5.25,5.37155497 L5.25,6.36179551 C5.25,6.49326333 5.35031916,6.6 5.47388252,6.6 L6.52614166,6.6 C6.64969696,6.6 6.75,6.49326333 6.75,6.36179551 L6.75,5.37155497 Z" id="Fill-3"></path>
                        <path d="M6.75,7.57153713 C6.75,7.44006969 6.64969696,7.33333333 6.52614166,7.33333333 L5.47388252,7.33333333 C5.35031916,7.33333333 5.25,7.44006969 5.25,7.57153713 L5.25,8.56179621 C5.25,8.69326364 5.35031916,8.8 5.47388252,8.8 L6.52614166,8.8 C6.64969696,8.8 6.75,8.69326364 6.75,8.56179621 L6.75,7.57153713 Z" id="Fill-4"></path>
                        <path d="M3.75,7.57153713 C3.75,7.44006969 3.64968137,7.33333333 3.52611868,7.33333333 L2.47388132,7.33333333 C2.35031863,7.33333333 2.25,7.44006969 2.25,7.57153713 L2.25,8.56179621 C2.25,8.69326364 2.35031863,8.8 2.47388132,8.8 L3.52611868,8.8 C3.64968137,8.8 3.75,8.69326364 3.75,8.56179621 L3.75,7.57153713 Z" id="Fill-5"></path>
                        <path d="M9.75,5.37155497 C9.75,5.24005285 9.64965881,5.13333333 9.52610617,5.13333333 L8.47389383,5.13333333 C8.35034119,5.13333333 8.25,5.24005285 8.25,5.37155497 L8.25,6.36179551 C8.25,6.49326333 8.35034119,6.6 8.47389383,6.6 L9.52610617,6.6 C9.64965881,6.6 9.75,6.49326333 9.75,6.36179551 L9.75,5.37155497 Z" id="Fill-6"></path>
                        <path d="M9.75,7.57153713 C9.75,7.44006969 9.64965881,7.33333333 9.52610617,7.33333333 L8.47389383,7.33333333 C8.35034119,7.33333333 8.25,7.44006969 8.25,7.57153713 L8.25,8.56179621 C8.25,8.69326364 8.35034119,8.8 8.47389383,8.8 L9.52610617,8.8 C9.64965881,8.8 9.75,8.69326364 9.75,8.56179621 L9.75,7.57153713 Z" id="Fill-7"></path>
                    </g>
                </g>
            </g>
        </g>
    </g>
</svg>