<?xml version="1.0" encoding="UTF-8"?>
<svg width="18px" height="10px" viewBox="0 0 18 10" version="1.1" xmlns="http://www.w3.org/2000/svg" xmlns:xlink="http://www.w3.org/1999/xlink">
    <title>Fill 4</title>
    <g id="Symbols" stroke="none" stroke-width="1" fill="none" fill-rule="evenodd">
        <g id="Answer" transform="translate(-224.000000, -69.000000)" fill="#7CBDD1">
            <g id="Fill-4" transform="translate(233.000000, 74.000000) scale(1, -1) translate(-233.000000, -74.000000) translate(224.000000, 69.000000)">
                <path d="M13.0160722,5.9963298 L15.7623202,8.02947132 C16.1606553,8.3243786 16.7260857,8.39498152 17.2082179,8.21000321 C17.69035,8.02502489 18,7.61866151 18,7.17090498 L18,2.72243128 C18,2.27467474 17.69035,1.86830293 17.2082179,1.68332461 C16.7260857,1.49837161 16.1606553,1.56894922 15.7623202,1.86386494 L13.0160722,3.89700646 L13.0160722,2.38368404 C13.0160722,1.06807175 11.7532311,0 10.1976989,0 C10.1976989,0 2.81835332,0 2.81835332,0 C1.26286107,0 0,1.06807175 0,2.38368404 C0,2.38368404 0,7.6163244 0,7.6163244 C0,8.93191138 1.26286107,10 2.81835332,10 L10.1976989,10 C11.7532311,10 13.0160722,8.93191138 13.0160722,7.6163244 L13.0160722,5.9963298 Z" id="Fill-1"></path>
            </g>
        </g>
    </g>
</svg>