<?xml version="1.0" encoding="UTF-8"?>
<svg width="16px" height="16px" viewBox="0 0 16 16" version="1.1" xmlns="http://www.w3.org/2000/svg" xmlns:xlink="http://www.w3.org/1999/xlink">
    <title>Fill 2</title>
    <defs>
        <filter color-interpolation-filters="auto" id="filter-1">
            <feColorMatrix in="SourceGraphic" type="matrix" values="0 0 0 0 0.388645 0 0 0 0 0.432199 0 0 0 0 0.466514 0 0 0 1.000000 0"></feColorMatrix>
        </filter>
    </defs>
    <g id="Symbols" stroke="none" stroke-width="1" fill="none" fill-rule="evenodd">
        <g id="Fill-2" transform="translate(-1.000000, -1.000000)" filter="url(#filter-1)">
            <g transform="translate(1.000000, 1.000000)">
                <path d="M5.48001777,9.30431545 C4.62706374,8.94954242 3.07476915,7.93235598 2.22707786,7.65355171 C1.52326095,7.42213225 0.75166779,7.67585709 0.319526191,8.28075479 C-0.112615408,8.88565249 -0.105831735,9.70248179 0.336290938,10.3000313 C0.338045187,10.3024053 0.33981672,10.3047794 0.341588252,10.3071447 C1.15891288,11.3971867 2.63310448,13.3816964 3.65813049,14.8680351 C4.11694014,15.5897034 4.91794938,16.0197061 5.7716898,15.9993051 C6.6399395,15.9785563 7.43173677,15.495073 7.85101964,14.7298721 C9.07949536,12.4944725 13.312594,6.46225282 15.7299149,2.63407477 C16.2001056,1.90038847 16.0429145,0.924082188 15.3632509,0.375795817 C14.681859,-0.173968884 13.697319,-0.114226975 13.0864427,0.513628315 C11.0815864,2.5537232 6.88259625,7.77197461 5.48001777,9.30431545 Z M1.75130784,8.98465396 C1.61923327,8.9411691 1.47441268,8.98885595 1.39330479,9.10252889 C1.31219691,9.21621061 1.31346803,9.36971909 1.39645648,9.48201476 C2.23272268,10.5987694 3.74465868,12.6372592 4.78820447,14.1541763 C4.98674293,14.4803434 5.34249975,14.6754507 5.72213794,14.6663625 C6.10176744,14.657283 6.44792991,14.4453766 6.63087539,14.1100861 C7.87600684,11.8412854 12.1656268,5.714333 14.614883,1.82990794 C14.7044709,1.69156697 14.6752177,1.50725855 14.5472351,1.40391951 C14.4193396,1.30058047 14.2345048,1.31189688 14.1199299,1.4300613 C12.0358159,3.55289784 7.59873731,9.09196691 6.33971931,10.4242861 C6.05688646,10.7370139 5.61835885,10.8535905 5.21922725,10.7221447 C4.42233964,10.4598056 2.67323532,9.28825845 1.75130784,8.98465396 Z" id="Fill-1" fill="#2B95D1"></path>
            </g>
        </g>
    </g>
</svg>