<?xml version="1.0" encoding="UTF-8"?>
<svg width="12px" height="12px" viewBox="0 0 12 12" version="1.1" xmlns="http://www.w3.org/2000/svg" xmlns:xlink="http://www.w3.org/1999/xlink">
    <title>Group 9</title>
    <g id="Móvil" stroke="none" stroke-width="1" fill="none" fill-rule="evenodd">
        <g id="Profile-public" transform="translate(-128.000000, -376.000000)">
            <g id="Group-9" transform="translate(128.000000, 376.000000)">
                <rect id="Rectangle-Copy-5" fill="#74B8EE" opacity="0" x="0" y="0" width="12" height="12"></rect>
                <g id="Fill-10" transform="translate(1.000000, 2.000000)" fill="#7CBDD1">
                    <path d="M10,1.66132258 C10,0.744469086 9.25477317,0 8.33684278,0 L1.66315078,0 C0.745233266,0 0,0.744469086 0,1.66132258 L0,4.98397418 C0,5.90087913 0.745233266,6.64529033 1.66315078,6.64529033 L3.82708394,6.64529033 C3.92471103,6.64529033 4.01834573,6.68403823 4.08737564,6.75300486 C4.32316559,6.98857973 4.89049873,7.55540282 5.22769568,7.89229213 C5.29747255,7.96199847 5.3923436,8.00080426 5.49102676,8 C5.58970991,7.9991769 5.68393058,7.9588145 5.75254194,7.88796322 L6.84741943,6.75733376 C6.91677131,6.68572348 7.01220258,6.64529033 7.11194823,6.64529033 L8.33684278,6.64529033 C9.25477317,6.64529033 10,5.90087913 10,4.98397418 L10,1.66132258 Z" id="Fill-1"></path>
                </g>
            </g>
        </g>
    </g>
</svg>