<?xml version="1.0" encoding="UTF-8"?>
<svg width="16px" height="16px" viewBox="0 0 16 16" version="1.1" xmlns="http://www.w3.org/2000/svg" xmlns:xlink="http://www.w3.org/1999/xlink">
    <title>Fill 1</title>
    <g id="Móvil" stroke="none" stroke-width="1" fill="none" fill-rule="evenodd">
        <g id="Profile-from-me" transform="translate(-344.000000, -311.000000)" fill="#2B95D1">
            <g id="Group-5" transform="translate(343.000000, 310.000000)">
                <g id="Fill-9" transform="translate(1.000000, 1.000000)">
                    <path d="M0.0196982551,14.0115867 C-0.0656794743,14.5699587 0.129708045,15.1344234 0.543102916,15.5236295 C0.956497786,15.9128355 1.53580693,16.07776 2.09492275,15.9653967 L5.64805906,15.2513446 C5.98341492,15.18395 6.29140445,15.0205604 6.5337953,14.7814573 L15.4860639,5.95038967 C16.165369,5.28031046 16.1721159,4.19358468 15.5012148,3.51530377 L12.5380288,0.519572806 C12.2116925,0.189747139 11.7656876,0.00263112116 11.2993238,2.64418959e-05 C10.8328415,-0.00252423562 10.3848245,0.179553593 10.0548188,0.505864243 L1.072201,9.3865287 C0.807971549,9.64776469 0.63523937,9.98592095 0.579358563,10.351424 L0.0196982551,14.0115867 Z M5.30042859,13.556357 L2.30694076,10.6102581 L11.2894994,1.72955848 L14.2526854,4.72528944 L5.30042859,13.556357 Z" id="Fill-1"></path>
                </g>
            </g>
        </g>
    </g>
</svg>