<?xml version="1.0" encoding="UTF-8"?>
<svg width="24px" height="24px" viewBox="0 0 24 24" version="1.1" xmlns="http://www.w3.org/2000/svg" xmlns:xlink="http://www.w3.org/1999/xlink">
    <title>Group</title>
    <g id="Symbols" stroke="none" stroke-width="1" fill="none" fill-rule="evenodd">
        <g id="audio_player" transform="translate(-15.000000, -7.000000)">
            <g id="Group" transform="translate(15.000000, 7.000000)">
                <rect id="Rectangle-Copy-3" fill="#4E565C" opacity="0" x="0" y="0" width="24" height="24"></rect>
                <path d="M11.51779,0.695713584 C11.50422,0.695237861 11.4905549,0.695 11.4768303,0.695 C7.99217387,0.695 5.82680338,1.89845933 4.46572524,3.29613243 C2.36569525,5.45270205 2.17295623,8.15444982 2.17295623,8.15444982 C2.17088683,8.18156601 2.16985214,8.20880113 2.16985214,8.23591732 L2.16985214,16.8727688 L1.51292675,16.8727688 C1.35622372,16.8727688 1.22900359,17.0000008 1.22900359,17.1566919 L1.22900359,21.3006523 C1.22900359,21.4573553 1.35622372,21.5845755 1.51292675,21.5845755 L2.20557891,21.5845755 L2.20557891,22.9371025 C2.20557891,23.3553935 2.5451854,23.695 2.96348831,23.695 L6.23180984,23.695 C6.65011275,23.695 6.98970735,23.3553935 6.98970735,22.9371025 L6.98970735,15.6418483 C6.98970735,15.2235454 6.65011275,14.8839389 6.23180984,14.8839389 L4.31336318,14.8839389 L4.31336318,8.28681964 C4.34154974,8.03183231 4.58519109,6.24596954 6.00140548,4.79156652 C7.05948397,3.70501603 8.76791098,2.83848725 11.4768303,2.83848725 C11.4905549,2.83848725 11.50422,2.83824939 11.51779,2.83765474 C11.53136,2.83824939 11.5450251,2.83848725 11.5587497,2.83848725 C14.2676095,2.83848725 15.9760484,3.70501603 17.0341745,4.79156652 C18.4502818,6.24585061 18.6939708,8.03159445 18.7221573,8.28658178 L18.7221573,14.8839389 L16.8827758,14.8839389 C16.4644966,14.8839389 16.1248307,15.2235454 16.1248307,15.6418483 L16.1248307,22.9371025 C16.1248307,23.3553935 16.4644966,23.695 16.8827758,23.695 L20.1511092,23.695 C20.5693883,23.695 20.9089353,23.3553935 20.9089353,22.9371025 L20.9089353,21.5845755 L21.6459486,21.5845755 C21.8026992,21.5845755 21.929955,21.4573553 21.929955,21.3006523 L21.929955,17.1566919 C21.929955,17.0000008 21.8026992,16.8727688 21.6459486,16.8727688 L20.9089353,16.8727688 L20.9089353,15.6418483 C20.9089353,15.553245 20.8937122,15.4681858 20.8657635,15.389085 L20.8657635,8.23591732 C20.8657635,8.20880113 20.8646931,8.18156601 20.8626713,8.15444982 C20.8626713,8.15444982 20.6698847,5.45270205 18.5698072,3.29613243 C17.2087647,1.89845933 15.0433942,0.695 11.5587497,0.695 C11.5450251,0.695 11.53136,0.695237861 11.51779,0.695713584 Z" id="Fill-1" fill="#2B95D1" transform="translate(11.579479, 12.195000) scale(-1, 1) translate(-11.579479, -12.195000) "></path>
            </g>
        </g>
    </g>
</svg>