<?xml version="1.0" encoding="UTF-8"?>
<svg width="15px" height="16px" viewBox="0 0 15 16" version="1.1" xmlns="http://www.w3.org/2000/svg" xmlns:xlink="http://www.w3.org/1999/xlink">
    <title>general</title>
    <defs>
        <filter color-interpolation-filters="auto" id="filter-1">
            <feColorMatrix in="SourceGraphic" type="matrix" values="0 0 0 0 0.388645 0 0 0 0 0.432199 0 0 0 0 0.466514 0 0 0 1.000000 0"></feColorMatrix>
        </filter>
        <polygon id="path-2" points="0 0 15 0 15 16 0 16"></polygon>
    </defs>
    <g id="Symbols" stroke="none" stroke-width="1" fill="none" fill-rule="evenodd">
        <g id="home_button" transform="translate(-18.000000, -11.000000)">
            <g id="Group-5" transform="translate(16.000000, 10.000000)" filter="url(#filter-1)">
                <g transform="translate(2.000000, 1.000000)">
                    <g id="Group-3" transform="translate(0.000000, -0.000000)">
                        <mask id="mask-3" fill="white">
                            <use xlink:href="#path-2"></use>
                        </mask>
                        <g id="Clip-2"></g>
                        <path d="M1.80172131,9.54303281 L2.19635791,13.715388 C2.31722415,14.9933511 3.40720965,15.9723072 4.71501338,15.9774911 C6.16999185,15.98326 8.93050093,15.9942036 10.3888704,16 C11.7023383,16.0051838 12.8031211,15.0266757 12.9274902,13.7434282 L13.3353462,9.53341485 C13.9923131,9.46341954 14.5690688,9.05538782 14.840445,8.45329646 C15.1393034,7.79012377 15.0114874,7.01634458 14.5143837,6.47986926 C13.2902566,5.15868027 10.4280909,2.06959761 9.1903438,0.733780556 C8.75735309,0.266413723 8.14360334,0 7.49999569,0 C6.85638804,0 6.24263829,0.266413723 5.80964758,0.733780556 C4.57191907,2.06959761 1.70969751,5.15868027 0.485598364,6.47986926 C-0.0115053042,7.01634458 -0.139349263,7.79012377 0.159537112,8.45329646 C0.449638466,9.0969681 1.08875578,9.51885078 1.80172131,9.54303281 Z M3.16045581,8.08139607 L1.86670066,8.08139607 C1.71781178,8.08139607 1.58294353,7.99520931 1.52271536,7.86158189 C1.4624965,7.72796361 1.48825534,7.57205582 1.58841204,7.46394524 C2.81251119,6.14278368 5.67473275,3.05370102 6.91247058,1.71788396 C7.06296182,1.55542096 7.27628972,1.46280699 7.49999569,1.46280699 C7.72370166,1.46280699 7.93702956,1.55542096 8.0875208,1.71788396 C9.32525863,3.05370102 12.1875175,6.14278368 13.4115514,7.46394524 C13.5116988,7.57205582 13.5375042,7.72796361 13.4772294,7.86158189 C13.4170479,7.99520931 13.2821517,8.08139607 13.1332814,8.08139607 L11.9787451,8.08139607 L11.443632,13.6049735 C11.3922075,14.1350948 10.9374918,14.5393324 10.3948327,14.5371924 C8.93651909,14.5314058 6.17601932,14.5204622 4.72103154,14.5146932 C4.18075736,14.5125539 3.73047609,14.1081334 3.68054214,13.5801973 L3.16045581,8.08139607 Z" id="Fill-1" fill="#2B95D1" mask="url(#mask-3)"></path>
                    </g>
                </g>
            </g>
        </g>
    </g>
</svg>