<?xml version="1.0" encoding="UTF-8"?>
<svg width="16px" height="16px" viewBox="0 0 16 16" version="1.1" xmlns="http://www.w3.org/2000/svg" xmlns:xlink="http://www.w3.org/1999/xlink">
    <title>Group 2</title>
    <defs>
        <filter color-interpolation-filters="auto" id="filter-1">
            <feColorMatrix in="SourceGraphic" type="matrix" values="0 0 0 0 1.000000 0 0 0 0 1.000000 0 0 0 0 1.000000 0 0 0 1.000000 0"></feColorMatrix>
        </filter>
    </defs>
    <g id="Symbols" stroke="none" stroke-width="1" fill="none" fill-rule="evenodd">
        <g id="Group-2" transform="translate(-34.000000, -29.000000)" filter="url(#filter-1)">
            <g transform="translate(34.000000, 29.000000)">
                <rect id="Rectangle" fill="#D8D8D8" opacity="0" x="0" y="0" width="16" height="16"></rect>
                <g id="Fill-8" transform="translate(0.000000, 2.000000)" fill="#FFFFFF">
                    <path d="M16,1.13485275 C16,0.508143023 15.4755594,0 14.8287492,0 L1.17124127,0 C0.52438364,0 0,0.508143023 0,1.13485275 L0,10.8651565 C0,11.4919122 0.52438364,12 1.17124127,12 L14.8287492,12 C15.4755594,12 16,11.4919122 16,10.8651565 L16,1.13485275 Z M14.8287492,10.7821598 L14.8287492,1.13485275 L1.17124127,1.13485275 L1.17124127,10.8651565 L2.15054867,10.8651565 C2.16224407,10.8534195 2.17452853,10.8420231 2.18737352,10.8310133 L8.82800817,5.13808081 C8.95645813,5.02796474 9.12483017,4.97185728 9.29600494,4.98212141 C9.46718921,4.99239473 9.6270961,5.06819273 9.7406299,5.19281665 L14.8287492,10.7821598 Z M4.09739205,10.8651565 L13.1814166,10.8651565 L9.19960097,6.49109446 L4.09739205,10.8651565 Z M4.46526056,2.31030171 C3.24336136,2.31030171 2.30346302,3.24825824 2.30346302,4.33760826 C2.30346302,5.42696748 3.24336136,6.36491481 4.46526056,6.36491481 C5.68715975,6.36491481 6.6270581,5.42696748 6.6270581,4.33760826 C6.6270581,3.24825824 5.68715975,2.31030171 4.46526056,2.31030171 Z M4.46526056,3.56221147 C4.94528526,3.56221147 5.33500546,3.90965426 5.33500546,4.33760826 C5.33500546,4.76557147 4.94528526,5.11301426 4.46526056,5.11301426 C3.98523586,5.11301426 3.59551565,4.76557147 3.59551565,4.33760826 C3.59551565,3.90965426 3.98523586,3.56221147 4.46526056,3.56221147 Z" id="Fill-1"></path>
                </g>
            </g>
        </g>
    </g>
</svg>