<?xml version="1.0" encoding="UTF-8"?>
<svg width="13px" height="10px" viewBox="0 0 13 10" version="1.1" xmlns="http://www.w3.org/2000/svg" xmlns:xlink="http://www.w3.org/1999/xlink">
    <title>Fill 5</title>
    <g id="Symbols" stroke="none" stroke-width="1" fill="none" fill-rule="evenodd">
        <g id="Answer" transform="translate(-264.000000, -69.000000)" fill="#7CBDD1">
            <g id="Fill-5" transform="translate(264.000000, 69.000000)">
                <path d="M13,0.945710625 C13,0.423452519 12.573892,0 12.0483587,0 L0.951633533,0 C0.426061707,0 0,0.423452519 0,0.945710625 L0,9.05429705 C0,9.57659351 0.426061707,10 0.951633533,10 L12.0483587,10 C12.573892,10 13,9.57659351 13,9.05429705 L13,0.945710625 Z M12.0483587,8.98513313 L12.0483587,0.945710625 L0.951633533,0.945710625 L0.951633533,9.05429705 L1.74732079,9.05429705 C1.75682331,9.04451621 1.76680443,9.03501922 1.77724099,9.02584441 L7.17275664,4.28173401 C7.27712223,4.18997062 7.41392452,4.1432144 7.55300401,4.15176784 C7.69209123,4.16032894 7.82201558,4.22349394 7.91426179,4.32734721 L12.0483587,8.98513313 Z M3.32913104,9.05429705 L10.709901,9.05429705 L7.47467579,5.40924538 L3.32913104,9.05429705 Z M3.6280242,1.92525142 C2.63523111,1.92525142 1.8715637,2.70688187 1.8715637,3.61467355 C1.8715637,4.5224729 2.63523111,5.30409568 3.6280242,5.30409568 C4.6208173,5.30409568 5.3844847,4.5224729 5.3844847,3.61467355 C5.3844847,2.70688187 4.6208173,1.92525142 3.6280242,1.92525142 Z M3.6280242,2.96850955 C4.01804427,2.96850955 4.33469194,3.25804521 4.33469194,3.61467355 C4.33469194,3.97130956 4.01804427,4.26084522 3.6280242,4.26084522 C3.23800413,4.26084522 2.92135647,3.97130956 2.92135647,3.61467355 C2.92135647,3.25804521 3.23800413,2.96850955 3.6280242,2.96850955 Z" id="Fill-1"></path>
            </g>
        </g>
    </g>
</svg>