<?xml version="1.0" encoding="UTF-8"?>
<svg width="15px" height="11px" viewBox="0 0 15 11" version="1.1" xmlns="http://www.w3.org/2000/svg" xmlns:xlink="http://www.w3.org/1999/xlink">
    <title>Group 7</title>
    <g id="Móvil" stroke="none" stroke-width="1" fill="none" fill-rule="evenodd">
        <g id="Profile-public" transform="translate(-362.000000, -314.000000)" fill="#4385B9">
            <g id="Group-2" transform="translate(287.000000, 303.000000)">
                <g id="Fill-9" transform="translate(75.000000, 11.000000)">
                    <path d="M15,1.424882 C15,0.637990916 14.3818525,0 13.619436,0 L1.38056396,0 C0.618095742,0 0,0.637990916 0,1.424882 L0,9.575118 C0,10.3620625 0.618095742,11 1.38056396,11 L13.619436,11 C14.3818525,11 15,10.3620625 15,9.575118 L15,1.424882 Z M13.619436,2.36071778 L9.00524614,6.80537002 C8.25800727,7.52513136 7.10411466,7.54404666 6.33512327,6.84913171 L1.38056396,2.37184077 L1.38056396,9.575118 L13.619436,9.575118 L13.619436,2.36071778 Z M12.5675326,1.424882 L2.42843789,1.424882 L7.24456115,5.77710393 C7.48034422,5.99016831 7.83414825,5.98437083 8.06326147,5.76368332 L12.5675326,1.424882 Z" id="Fill-1"></path>
                </g>
            </g>
        </g>
    </g>
</svg>