<?xml version="1.0" encoding="UTF-8"?>
<svg width="10px" height="16px" viewBox="0 0 10 16" version="1.1" xmlns="http://www.w3.org/2000/svg" xmlns:xlink="http://www.w3.org/1999/xlink">
    <title>Fill 3</title>
    <g id="Symbols" stroke="none" stroke-width="1" fill="none" fill-rule="evenodd">
        <g id="Answer" transform="translate(-190.000000, -66.000000)" fill="#7CBDD1">
            <g id="Fill-3" transform="translate(195.000000, 74.000000) scale(-1, 1) translate(-195.000000, -74.000000) translate(190.000000, 66.000000)">
                <path d="M5,11.5482177 C4.11976597,11.5422384 3.45184481,11.358431 2.95355624,11.0458124 C2.19402927,10.5692868 1.84166254,9.81318406 1.66946121,9.06862064 C1.35091786,7.69128104 1.65793528,6.31392466 1.65793528,6.31392466 C1.73894143,5.95055322 1.46877451,5.59783218 1.05500621,5.52663386 C0.641228353,5.45551939 0.239530281,5.69276329 0.158524131,6.05613472 C0.158447737,6.05647017 -0.20703964,7.69607791 0.172160436,9.33568565 C0.418645261,10.401455 0.978211267,11.4555089 2.06540109,12.137604 C2.64939404,12.5039944 3.38929733,12.7686945 4.32999235,12.8575541 L4.32999235,14.6582176 L2.791945,14.6582176 C2.37030813,14.6582176 2.02800629,14.9588356 2.02800629,15.3291088 C2.02800629,15.699382 2.37030813,16 2.791945,16 L7.37245466,16 C7.79408198,16 8.13639337,15.699382 8.13639337,15.3291088 C8.13639337,14.9588356 7.79408198,14.6582176 7.37245466,14.6582176 L5.85786977,14.6582176 L5.85786977,12.837159 C6.71003385,12.7324413 7.39009209,12.4792218 7.93459896,12.137604 C9.02178878,11.4555089 9.58131659,10.401455 9.82787781,9.33568565 C10.2070779,7.69591857 9.84143772,6.05613472 9.84143772,6.05613472 C9.76046022,5.69276329 9.3587717,5.45551939 8.94499384,5.52663386 C8.53122554,5.59783218 8.26105861,5.95055322 8.34207431,6.31392466 L8.34207431,6.31392466 C8.34207431,6.31392466 8.64908218,7.69128104 8.33053884,9.06862064 C8.15833751,9.81318406 7.80598033,10.5692868 7.04644381,11.0458124 C6.54815524,11.358431 5.88023408,11.5422384 5,11.5482177 Z M7.16705064,1.88797165 C7.16705064,0.845993784 6.20372392,0 5.01716477,0 L4.99987111,0 C3.81332151,0 2.84998524,0.845993784 2.84998524,1.88797165 L2.84998524,8.61670834 C2.84998524,9.65873652 3.81332151,10.5047387 4.99987111,10.5047387 C4.99987111,10.5047387 5.01716477,10.5047387 5.01716477,10.5047387 C6.20372392,10.5047387 7.16705064,9.65873652 7.16705064,8.61670834 C7.16705064,8.61670834 7.16705064,1.88797165 7.16705064,1.88797165 Z" id="Fill-1"></path>
            </g>
        </g>
    </g>
</svg>