<?xml version="1.0" encoding="UTF-8"?>
<svg width="12px" height="13px" viewBox="0 0 12 13" version="1.1" xmlns="http://www.w3.org/2000/svg" xmlns:xlink="http://www.w3.org/1999/xlink">
    <title>Fill 1</title>
    <g id="Symbols" stroke="none" stroke-width="1" fill="none" fill-rule="evenodd">
        <g id="side_menu" transform="translate(-29.000000, -159.000000)" fill="#7CBDD1">
            <path d="M33.7731461,161.155981 C33.7618064,161.08055 33.755925,161.003189 33.755925,160.924459 C33.755925,160.086125 34.4235488,159.4055 35.2458753,159.4055 C36.0681832,159.4055 36.7358007,160.086125 36.7358007,160.924459 C36.7358007,160.992297 36.7314441,161.059078 36.7229798,161.124551 C38.4351228,161.542225 39.7784487,162.959364 40.0491801,164.769655 C40.3171731,166.561803 40.6089407,168.512837 40.7484763,169.445759 C40.769388,169.585687 40.7283115,169.727793 40.6360138,169.834996 C40.543654,169.942206 40.4092218,170.003883 40.2677568,170.003933 L36.7313196,170.005289 C36.6717587,170.788257 36.0289738,171.4055 35.2458753,171.4055 C34.4631005,171.4055 33.8205085,170.78878 33.7605119,170.006435 L30.2846812,170.007766 C30.1419902,170.007822 30.0064813,169.945199 29.9140467,169.836496 C29.8216184,169.727793 29.7815937,169.583982 29.8045903,169.443158 C29.9591126,168.49668 30.2824406,166.516271 30.5771645,164.711089 C30.861501,162.969508 32.1386376,161.604399 33.7731461,161.155981 Z" id="Fill-1"></path>
        </g>
    </g>
</svg>