<?xml version="1.0" encoding="UTF-8"?>
<svg width="18px" height="18px" viewBox="0 0 18 18" version="1.1" xmlns="http://www.w3.org/2000/svg" xmlns:xlink="http://www.w3.org/1999/xlink">
    <title>Group 11</title>
    <g id="Symbols" stroke="none" stroke-width="1" fill="none" fill-rule="evenodd">
        <g id="Too_bar" transform="translate(-260.000000, -23.000000)" fill="#2B95D1">
            <g id="Group-9" transform="translate(260.000000, 23.000000)">
                <rect id="Rectangle-Copy-2" opacity="0" x="0" y="0" width="18" height="18"></rect>
                <g id="Fill-2" transform="translate(2.000000, 1.000000)">
                    <path d="M4.63184519,14.0690337 C4.86173813,15.1790475 5.85599809,16 6.96722087,16 C8.09197528,16 8.96678909,15.1871567 9.16465934,14.0672216 L13.1429879,14.0656285 C13.3924796,14.0655303 13.6295185,13.9521302 13.7922745,13.7550031 C13.955103,13.5578836 14.027431,13.2966004 13.9905792,13.0393114 C13.8586657,12.1196217 13.4759573,9.45072012 13.1277114,7.02229269 C12.8013305,4.74628612 11.270352,2.93085679 9.2711603,2.23749929 C9.17074097,0.982237575 8.17407731,0 6.96722087,0 C5.74293765,0 4.73492162,1.01077826 4.65950214,2.29193801 C2.75809435,3.01338317 1.30644498,4.75889537 0.964476257,6.94323952 C0.581637518,9.38874606 0.1572844,12.0993186 0.0112093902,13.0324027 C-0.0293275836,13.2913302 0.0412338285,13.5557619 0.204199848,13.7556374 C0.367165867,13.9555052 0.606087127,14.0706495 0.857656733,14.0705438 L4.63184519,14.0690337 Z M7.63636364,14 C7.11006211,14.0145605 6.31273023,14.0342614 5.72727273,14.0385328 C5.9403273,14.41945 6.32101943,14.6666667 6.72731504,14.6666667 C7.13609602,14.6666667 7.46572004,14.3987243 7.63636364,14 Z M12.7272727,12.6621584 L1.27272727,12.6666667 L2.15906457,7.09993176 C2.44939051,5.27641581 3.75337613,3.84704658 5.42235828,3.37749214 C5.70217965,3.29878028 5.88039947,3.01792872 5.83727126,2.72371376 C5.82839213,2.66313794 5.82381652,2.6010936 5.82381652,2.53794789 C5.82381652,1.87616617 6.33216798,1.33333333 6.96520671,1.33333333 C7.59821681,1.33333333 8.10661839,1.87616617 8.10661839,2.53794789 C8.10661839,2.592356 8.10318131,2.64602985 8.09652197,2.69860233 C8.0590721,2.99546059 8.24531894,3.27374227 8.52887813,3.34467105 C10.2771351,3.78191839 11.6486021,5.26576915 11.9250007,7.16116841 L12.7272727,12.6621584 Z" id="Fill-1"></path>
                </g>
            </g>
        </g>
    </g>
</svg>