<?xml version="1.0" encoding="UTF-8"?>
<svg width="14px" height="14px" viewBox="0 0 14 14" version="1.1" xmlns="http://www.w3.org/2000/svg" xmlns:xlink="http://www.w3.org/1999/xlink">
    <title>Fill 2</title>
    <g id="Symbols" stroke="none" stroke-width="1" fill="none" fill-rule="evenodd">
        <g id="side_menu" transform="translate(-29.000000, -436.000000)" fill="#7CBDD1">
            <g id="Fill-2" transform="translate(29.000000, 436.000000)">
                <path d="M12.6030684,0.996464485 C12.6024588,1.13173826 12.6732757,1.25670346 12.7877816,1.32202618 C13.5115972,1.7420481 14,2.5442237 14,3.46452718 C14,4.73852004 13.0642418,5.78618704 11.8654349,5.91106808 C11.7507257,5.92288087 11.6486153,5.99141187 11.5914131,6.09500255 C10.8108018,7.49341363 9.63319931,8.6388964 8.26381212,9.0869303 C8.08768434,9.14250194 7.98161141,9.32801426 8.01928559,9.51461002 C8.3362648,11.0638208 8.97070077,12.3521931 9.92865914,13.3742254 C10.0280263,13.4804564 10.0563734,13.6379146 10.0006546,13.774072 C9.94493585,13.9102294 9.81596174,13.9986833 9.67312906,13.9986833 C8.38507461,14.0000019 6.05891779,14.0000019 4.74722045,14.0000019 C4.60179691,14.0000019 4.47090252,13.908662 4.41633186,13.7690965 C4.36176121,13.629531 4.39441622,13.4696429 4.49889399,13.3649056 C5.57154116,12.2996194 6.19084853,11.0374709 6.36338975,9.58186823 C6.38472625,9.39375773 6.26497765,9.21947967 6.08633012,9.17867663 C4.57883477,8.81715063 3.27588539,7.60435706 2.43433291,6.09727465 C2.37643985,5.99257947 2.27281555,5.92374343 2.15675511,5.91291942 C0.947290118,5.79907276 0,4.74635666 0,3.46452718 C0,2.52676223 0.507097654,1.71154313 1.25292034,1.29688587 C1.36848293,1.23408771 1.44147411,1.11070035 1.44302862,0.975531763 C1.44662535,0.810068582 1.44924669,0.58233318 1.4514413,0.391519315 C1.45375784,0.189450166 1.61236937,0.0268271037 1.80752729,0.0263011559 C3.47436571,0.0220935734 10.5647207,0.00421134785 12.2482728,1.87139813e-06 C12.3434742,-0.00031180331 12.4347132,0.0388187137 12.501974,0.108559393 C12.5691332,0.178300073 12.6066245,0.272970679 12.6061165,0.371428108 C12.605202,0.575390669 12.6039828,0.821429054 12.6030684,0.996464485 Z M11.4131009,4.66456126 C11.4131009,4.77809235 11.4634957,4.88532259 11.5498578,4.95537884 C11.6361182,5.0254456 11.7486937,5.05056487 11.855173,5.02351012 C12.5776678,4.839218 13.1095564,4.21568584 13.1095564,3.47473056 C13.1095564,2.73377529 12.5776678,2.11031676 11.8550714,1.92655059 C11.7486937,1.89951687 11.6363214,1.92455199 11.5501626,1.99450305 C11.4640037,2.06445411 11.4137105,2.17153708 11.4137105,2.28493143 C11.4131009,2.8999748 11.4131009,4.04949685 11.4131009,4.66456126 Z M2.79127235,4.66456126 C2.79127235,4.77809235 2.74087755,4.88532259 2.65459678,4.95537884 C2.56830585,5.0254456 2.45571006,5.05056487 2.3492104,5.02351012 C1.62670547,4.839218 1.09481683,4.21568584 1.09481683,3.47473056 C1.09481683,2.73377529 1.62670547,2.11031676 2.34933233,1.92655059 C2.45567958,1.89951687 2.56811281,1.92455199 2.65427166,1.99450305 C2.7404305,2.06445411 2.79075418,2.17153708 2.79075418,2.28493143 C2.79127235,2.8999748 2.79127235,4.04949685 2.79127235,4.66456126 Z" id="Fill-1"></path>
            </g>
        </g>
    </g>
</svg>