<?xml version="1.0" encoding="utf-8"?>
<!-- Generator: Adobe Illustrator 25.3.1, SVG Export Plug-In . SVG Version: 6.00 Build 0)  -->
<svg version="1.1" id="Capa_1" xmlns="http://www.w3.org/2000/svg" xmlns:xlink="http://www.w3.org/1999/xlink" x="0px" y="0px"
	 viewBox="0 0 13 13" style="enable-background:new 0 0 13 13;" xml:space="preserve">
<style type="text/css">
	.st0{fill:#C4E5FF;}
</style>
<path class="st0" d="M12.4,5.4L8.9,1.3c-0.4-0.4-1-0.5-1.4-0.1C7.1,1.5,7,2.1,7.4,2.5L10.2,6H1C0.4,6,0,6.4,0,7s0.4,1,1,1h8.7
	l-2.4,2.8c-0.4,0.4-0.3,1.1,0.1,1.4c0.2,0.2,0.4,0.2,0.6,0.2c0.3,0,0.6-0.1,0.8-0.4L12.4,8C13,7.2,13,6.1,12.4,5.4z"/>
</svg>
