<?xml version="1.0" encoding="UTF-8"?>
<svg width="18px" height="18px" viewBox="0 0 18 18" version="1.1" xmlns="http://www.w3.org/2000/svg" xmlns:xlink="http://www.w3.org/1999/xlink">
    <title>Group 12</title>
    <g id="Symbols" stroke="none" stroke-width="1" fill="none" fill-rule="evenodd">
        <g id="Too_bar" transform="translate(-290.000000, -23.000000)" fill="#2B95D1">
            <g id="Group-12" transform="translate(290.000000, 23.000000)">
                <g id="Group-10" opacity="0">
                    <rect id="Rectangle-Copy" x="0" y="0" width="18" height="18"></rect>
                </g>
                <g id="Fill-5" transform="translate(3.000000, 2.000000)">
                    <path d="M8.74763036,11.739818 C8.76422484,11.7642819 8.78191587,11.7883514 8.80055725,11.8118899 L10.9926369,14.5721434 C11.3903196,15.0729449 12.1050519,15.1444858 12.5876808,14.7317924 C13.0703097,14.3191065 13.1392462,13.577466 12.7414904,13.0766644 L10.5494839,10.3164109 C10.5410039,10.3056923 10.5323046,10.2951785 10.523459,10.284786 C11.4335968,9.19390654 11.9843581,7.77209248 11.9843581,6.21786211 C11.9843581,2.78608286 9.299342,0 5.99217175,0 C2.68500151,0 0,2.78608286 0,6.21786211 C0,9.64960344 2.68500151,12.435747 5.99217175,12.435747 C6.98531118,12.435747 7.92236566,12.1844928 8.74763036,11.739818 Z M9.06687307,10.0719383 C10.1343295,9.15365672 10.8147031,7.76754864 10.8147031,6.21786211 C10.8147031,3.4559777 8.65376554,1.21371503 5.99217175,1.21371503 C3.33054872,1.21371503 1.16965499,3.4559777 1.16965499,6.21786211 C1.16965499,8.97973135 3.33054872,11.2220319 5.99217175,11.2220319 C7.07757503,11.2220319 8.07968425,10.8491332 8.88623447,10.2199888 C8.90794619,10.1981647 8.93068136,10.1770688 8.95443998,10.1567619 C8.99069928,10.1257666 9.02820135,10.0975098 9.06687307,10.0719383 Z" id="Fill-1"></path>
                </g>
            </g>
        </g>
    </g>
</svg>