<?xml version="1.0" encoding="UTF-8"?>
<svg width="18px" height="16px" viewBox="0 0 18 16" version="1.1" xmlns="http://www.w3.org/2000/svg" xmlns:xlink="http://www.w3.org/1999/xlink">
    <title>Group 8</title>
    <defs>
        <filter color-interpolation-filters="auto" id="filter-1">
            <feColorMatrix in="SourceGraphic" type="matrix" values="0 0 0 0 0.388645 0 0 0 0 0.432199 0 0 0 0 0.466514 0 0 0 1.000000 0"></feColorMatrix>
        </filter>
    </defs>
    <g id="Symbols" stroke="none" stroke-width="1" fill="none" fill-rule="evenodd">
        <g id="Group-8" transform="translate(0.000000, -1.000000)" filter="url(#filter-1)">
            <g transform="translate(1.000000, 2.000000)">
                <path d="M8.14455214,-0.344526405 C7.8802545,-0.172067421 7.71675237,0.121934012 7.71675237,0.441911299 L7.716,3.534 L7.26827239,3.63168928 C6.71141754,3.76075357 6.18818008,3.91341454 5.69775346,4.08965483 C4.86520574,4.38879482 4.18790064,4.70106971 3.61199201,5.06528385 C2.83508542,5.55665825 2.22482662,6.04961424 1.74269953,6.59370658 C0.733975024,7.73199544 0.0871512255,8.9176773 -0.223117482,10.1432935 C-0.562057255,11.4821961 -0.566122136,12.6968401 -0.384902868,13.6881605 L-0.345018065,13.8850109 L-0.328002764,13.921376 C-0.306845801,14.2573554 -0.0198399405,14.5227034 0.324774224,14.4985088 L0.424280132,14.4833077 C0.681141008,14.422105 0.866391687,14.2006763 0.891123908,13.9415711 L0.891,13.926 L0.921297187,13.785293 C0.960613346,13.6211365 1.02986648,13.3922776 1.13812993,13.1159985 C1.39469685,12.4612615 1.77707956,11.8049503 2.30968219,11.1918942 C2.80498436,10.621773 3.40765047,10.1174304 4.12955753,9.69619856 L4.31053915,9.59670727 L4.95994219,9.27843189 C5.20890403,9.15474163 5.48308303,9.03666633 5.817737,8.90786684 L6.25060625,8.74711413 L6.63668932,8.61569611 C6.89807983,8.53175963 7.1675518,8.45521234 7.44557246,8.38628288 L7.716,8.323 L7.71675237,10.6217219 C7.71675237,10.9817575 7.92371518,11.3089284 8.24818967,11.4669267 C8.56891966,11.6231186 8.95125092,11.5883143 9.23791053,11.3762654 L16.1180666,6.2863647 C16.3579396,6.10896348 16.5,5.82958629 16.5,5.53182064 C16.5,5.234055 16.3579396,4.95467781 16.118004,4.77723023 L9.23792585,-0.312556297 C8.95129796,-0.524598667 8.56900699,-0.55942744 8.24826608,-0.403314568 L8.14455214,-0.344526405 Z M8.71675237,4.3666419 L8.716,0.545 L15.457,5.531 L8.716,10.518 L8.71675237,7.11200761 L8.12775702,7.21854447 C7.33432862,7.36205897 6.59790702,7.55916415 5.91175391,7.80627456 C5.43071285,7.97953602 5.05159876,8.13022173 4.71345274,8.28749095 L4.10199516,8.58294434 L3.84212718,8.71314783 C3.76488959,8.75350541 3.69487328,8.79205074 3.62558685,8.8324778 C2.8077386,9.30969115 2.12072967,9.88461625 1.55477817,10.5360589 L1.33343556,10.8023298 C1.04890292,11.1602773 0.806437232,11.5293904 0.602481049,11.9035135 L0.5,12.099 L0.507302508,11.9276389 C0.534189393,11.4452301 0.609532485,10.9289792 0.74630217,10.3887024 C1.0162112,9.32251409 1.58562485,8.27873147 2.49112791,7.2569222 C2.90435431,6.79058598 3.443479,6.35509085 4.14650876,5.91044173 C4.6532167,5.58999125 5.26684441,5.30707514 6.03591797,5.03074184 C6.71691937,4.78601637 7.47220384,4.58885283 8.30463624,4.44022418 L8.71675237,4.3666419 Z" id="Fill-1" fill="#2B95D1" fill-rule="nonzero"></path>
            </g>
        </g>
    </g>
</svg>