<?xml version="1.0" encoding="UTF-8"?>
<svg width="12px" height="12px" viewBox="0 0 12 12" version="1.1" xmlns="http://www.w3.org/2000/svg" xmlns:xlink="http://www.w3.org/1999/xlink">
    <title>Group 4</title>
    <g id="Symbols" stroke="none" stroke-width="1" fill="none" fill-rule="evenodd">
        <g id="side_menu" transform="translate(-29.000000, -295.000000)" fill="#7CBDD1">
            <g id="Group-4" transform="translate(29.000000, 295.000000)">
                <rect id="Rectangle-Copy-4" opacity="0" x="0" y="0" width="12" height="12"></rect>
                <g id="Group-8">
                    <path d="M5.64901726,2.82000596 L5.64901726,0.315650928 C5.64901726,0.195891201 5.71563828,0.0864426775 5.82112158,0.033043319 C5.92660487,-0.0202984351 6.0526523,-0.0083743065 6.14663554,0.063861719 C7.26316089,0.921995748 9.9428444,2.98170175 10.8767284,3.69945365 C10.9543963,3.75913189 11,3.85233595 11,3.95130046 C11,4.05026497 10.9543963,4.14346903 10.8767284,4.20314727 C9.9428444,4.92095677 7.26316089,6.98061093 6.14663554,7.83877952 C6.0526523,7.91100979 5.92660487,7.92293392 5.82112158,7.86956336 C5.71563828,7.81619857 5.64901726,7.70673276 5.64901726,7.58694423 L5.64901726,5.50754326 C5.1006401,5.61059768 4.61418197,5.74977012 4.18080539,5.91192675 C3.84214851,6.03865662 3.53532922,6.16394637 3.25700515,6.30761196 C3.04676936,6.41613881 2.84899668,6.50634744 2.66582852,6.61738585 C0.56919229,7.88843459 0.270660976,9.9102138 0.270660976,9.9102138 C0.273470843,9.95657965 0.241451961,9.99672422 0.199207659,9.99981182 C0.156957692,10.0028937 0.120378442,9.96775492 0.117568576,9.92139483 C0.117568576,9.92139483 -0.184560047,8.82843612 0.179844507,7.3328566 C0.369493496,6.55452207 0.76795635,5.75259274 1.45538224,4.94664837 C1.77801836,4.56835971 2.18544899,4.23632746 2.66697852,3.91990602 C3.06175909,3.66051301 3.52099664,3.44858611 4.03345736,3.25728161 C4.51606325,3.07709478 5.0531103,2.93054897 5.64901726,2.82000596 Z" id="Fill-1"></path>
                </g>
            </g>
        </g>
    </g>
</svg>