<?xml version="1.0" encoding="UTF-8"?>
<svg width="12px" height="12px" viewBox="0 0 12 12" version="1.1" xmlns="http://www.w3.org/2000/svg" xmlns:xlink="http://www.w3.org/1999/xlink">
    <title>Group</title>
    <defs>
        <filter color-interpolation-filters="auto" id="filter-1">
            <feColorMatrix in="SourceGraphic" type="matrix" values="0 0 0 0 0.168627 0 0 0 0 0.584314 0 0 0 0 0.819608 0 0 0 1.000000 0"></feColorMatrix>
        </filter>
    </defs>
    <g id="Symbols" stroke="none" stroke-width="1" fill="none" fill-rule="evenodd">
        <g id="Group" transform="translate(-96.000000, -3.000000)" filter="url(#filter-1)">
            <g transform="translate(96.000000, 3.000000)">
                <rect id="Rectangle" fill="#000000" opacity="0" x="0" y="0" width="12" height="12"></rect>
                <g id="Fill-2" transform="translate(2.000000, 1.000000)" fill="#000000">
                    <path d="M3.71117871,9.66541268 C3.80120275,9.81911071 3.94948393,9.93126411 4.12339476,9.97719466 C4.29731227,10.0231318 4.48261037,9.99908483 4.63853641,9.91034713 C5.63882059,9.34109761 7.66030895,8.19065728 8.66054643,7.62140776 C8.81651249,7.53267007 8.93025165,7.38650767 8.97688137,7.21508183 C9.02344438,7.04364942 8.99909553,6.86099903 8.90903813,6.707301 C8.07063713,5.27583934 5.92353538,1.61018673 5.28675621,0.522977351 C5.17383091,0.330115061 4.97102165,0.20531021 4.74571139,0.189989067 C4.08983337,0.145209244 2.70284274,0.0505863885 1.98511864,0.00159818317 C1.7117244,-0.0170107593 1.45377333,0.128178445 1.33113517,0.369765917 C1.00526749,1.0116758 0.370869835,2.2613682 0.0717658735,2.85054179 C-0.0303191884,3.05162358 -0.0231145967,3.28985749 0.0909514343,3.48456095 C0.730318922,4.57617598 2.8736516,8.23549629 3.71117871,9.66541268 Z M3.04388009,2.55680982 C2.68850693,2.75907522 2.23341022,2.63887329 2.02823279,2.28852542 C1.82306203,1.93824332 1.94499974,1.48965602 2.3003729,1.28745638 C2.65575273,1.08519098 3.11084277,1.20539292 3.3160202,1.55567502 C3.52119763,1.90595713 3.39925325,2.35454443 3.04388009,2.55680982 Z" id="Fill-1"></path>
                </g>
            </g>
        </g>
    </g>
</svg>