<?xml version="1.0" encoding="UTF-8"?>
<svg width="18px" height="18px" viewBox="0 0 18 18" version="1.1" xmlns="http://www.w3.org/2000/svg" xmlns:xlink="http://www.w3.org/1999/xlink">
    <title>Group 2</title>
    <g id="Móvil" stroke="none" stroke-width="1" fill="none" fill-rule="evenodd" opacity="0.778026762">
        <g id="Home-Login" transform="translate(-61.000000, -250.000000)" fill="#C4E5FF">
            <g id="Group-2" transform="translate(61.000000, 249.998000)">
                <rect id="Rectangle" opacity="0" x="0" y="0.002" width="18" height="18"></rect>
                <path d="M7.7114791,8.99574371 C6.19383829,8.2847738 5.49244973,6.31544079 5.49244973,4.38154564 C5.49244973,1.96333295 6.58919553,0 9.00746447,0 C11.4257615,0 12.479335,1.96333295 12.479335,4.38154564 C12.479335,6.35387869 11.7784527,8.36305587 10.2077207,9.03680663 C10.5443149,10.0564516 11.3312606,11.0598402 13.1325918,11.079181 C15.382334,11.1033407 16.4107822,13.9280388 16.8594744,15.9528818 C16.9675693,16.4449432 16.847193,16.9594485 16.5321897,17.3525839 C16.2171865,17.7457099 15.7413065,17.9752779 15.2374887,17.9770966 L8.97682666,18 L8.97682666,18 L8.96298901,18 L8.92909803,18 L8.92909803,17.9997562 L2.62929491,17.976881 C2.13583664,17.9750997 1.66956616,17.7505662 1.36049732,17.3658871 C1.0514191,16.9812081 0.932589736,16.477531 1.03713145,15.9952666 C1.48076107,13.9676861 2.50779364,11.1034344 4.77337974,11.079106 C6.59896439,11.0595027 7.3826288,10.0291138 7.7114791,8.99574371 Z" id="Fill-1"></path>
            </g>
        </g>
    </g>
</svg>